<svg width="271" height="300" viewBox="29 105 195 195" fill="none" xmlns="http://www.w3.org/2000/svg">
  <path d="M4.18724 85.2221C6.90292 84.9319 9.40321 86.0324 10.8576 86.9997C11.294 87.2941 10.9108 87.4903 11.197 87.7097C11.7511 88.1401 12.3952 88.3118 12.9115 88.8151C13.0802 88.9833 12.5632 89.3016 12.7432 89.4663C13.5787 90.2717 14.5506 90.7903 15.4565 91.6371C19.5303 95.5672 22.92 99.5759 26.2078 103.756C27.3122 105.167 28.2629 107.083 29.5877 108.397C29.7355 108.542 30.011 108.133 30.0645 108.138C30.8955 108.227 30.0553 108.697 30.2121 109.097C30.8302 110.675 31.9412 112.181 33.0089 113.288C33.4667 113.762 33.7819 112.633 33.7823 113.501C33.783 113.561 33.2997 113.749 33.3681 113.927C33.5238 114.331 34.0624 114.901 34.2243 115.184C34.5342 115.732 34.5994 115.811 34.9459 116.288C35.4228 116.953 35.7797 117.859 36.3686 118.478C36.4954 118.609 36.7511 118.092 36.9895 118.272C37.2279 118.452 37.6465 119.106 37.705 119.393C37.7635 119.681 37.3851 119.842 37.3402 119.937C36.9551 120.731 38.3179 120.789 38.4064 120.867C39.9799 122.295 40.5171 124.13 41.6442 125.759C42.4943 126.985 43.5486 128.17 44.3241 129.367C45.2475 130.795 45.8184 132.146 46.7642 133.487C46.8635 133.629 47.2327 133.102 47.355 133.274C48.6529 135.108 49.8273 137.025 50.7122 139.14C50.8005 139.352 50.2179 139.42 50.2804 139.65C50.6701 141.049 51.0035 143.497 53.3007 142.847C53.7284 143.686 54.2486 144.681 54.3201 145.659C54.3656 146.289 53.6188 146.177 54.1711 146.596C54.2951 146.691 54.6013 146.236 54.7563 146.4C55.4083 147.094 55.8188 148.057 56.519 148.691C56.6625 148.819 57.0033 148.518 57.0977 148.517C57.8721 148.521 57.3719 149.767 57.3975 149.958C57.5792 151.364 58.2468 152.006 58.8389 152.998C58.976 153.227 59.3067 152.614 59.4564 152.823C60.2183 153.898 60.9127 155.135 61.3757 156.413C61.4772 156.697 60.9136 156.758 60.9403 156.909C61.0628 157.57 61.9345 157.137 62.0645 157.756C62.0928 157.887 61.6935 158.075 61.6652 158.121C61.2206 158.85 62.2654 158.504 62.3315 158.568C63.1865 159.358 62.663 160.662 63.3647 161.524C63.45 161.627 63.7563 161.057 63.9679 161.367C65.3502 163.376 66.6189 165.815 67.4798 168.158C67.623 168.537 67.132 168.525 67.1018 168.575C66.6362 169.37 67.6654 168.996 67.7637 169.083C68.5153 169.788 68.2191 171.072 69.6191 170.927C71.385 174.842 74.0597 178.057 75.1462 182.318C75.1609 182.372 74.6667 182.574 74.699 182.681C75.0775 183.959 75.5955 183.199 76.8971 183.459C77.2265 183.53 76.5207 184.758 76.4695 184.85C76.2908 185.203 75.5219 185.444 75.5015 185.537C75.3635 186.315 77.455 184.712 77.8917 185.494C77.9008 185.52 77.4403 185.679 77.4347 185.767C77.4165 186.042 77.6786 186.122 77.6317 186.377C77.5763 186.671 77.2931 187.01 77.1375 187.291C76.9763 187.562 77.0345 187.941 77.4943 188.011C77.5539 188.02 77.8833 187.802 78.2261 187.652C78.3978 187.577 78.5723 187.519 78.7146 187.507C78.8198 187.428 79.063 187.706 79.0742 187.763C79.0763 187.77 79.077 187.776 79.0763 187.777L79.0679 187.762C79.2263 188.091 79.7723 189.037 79.8529 189.366C79.9385 189.715 79.4205 189.766 79.4149 189.798C79.33 190.941 78.9396 190.775 78.3747 191.679C77.8125 192.58 79.6265 191.281 79.9272 191.312C80.2279 191.345 80.1165 192.213 80.0443 192.455C79.9721 192.697 79.6153 192.679 79.6006 192.863C79.5109 194.076 80.7403 192.648 81.1952 192.741C82.2698 192.959 81.1672 194.357 81.3691 195.052C81.4237 195.239 81.6663 194.904 81.777 195.032C82.2137 195.54 81.974 196.164 82.7394 196.572C82.8642 196.639 83.9983 196.643 83.5763 197.377C83.5153 197.482 83.0913 197.562 83.1515 197.859C83.2406 198.302 83.5357 199.015 83.8728 199.339C84.1216 199.578 84.5057 198.88 84.5338 199.362C84.5457 199.575 84.0424 199.484 84.0929 199.868C84.1427 200.251 84.5941 201.025 84.7714 201.316C84.9487 201.606 85.2915 201.169 85.3343 201.174C85.5824 201.214 86.1095 201.653 86.1368 201.703C87.6081 204.216 88.185 207.026 89.8076 209.351C89.9338 209.534 90.3186 209.115 90.3431 209.14C90.9053 209.685 89.3983 209.93 89.2504 210.652C90.1399 209.998 90.1251 210.378 90.4882 210.783C90.6642 210.977 90.9543 210.627 91.0027 210.624C91.7345 210.614 91.1604 211.294 91.0497 211.445C90.6431 212.003 91.4043 211.848 91.1338 212.223C90.8667 212.597 90.1518 212.58 90.409 213.025C90.8114 212.941 91.4927 212.058 91.8235 212.311C93.0726 213.263 93.7321 216.099 94.2382 217.179C94.7436 218.258 94.991 218.554 95.2069 219.232C95.5959 220.458 96.0179 219.652 96.6887 220.141C97.3609 220.632 95.5938 221.305 95.3078 221.618C95.0205 221.929 95.4291 221.812 95.3086 222.049C95.1873 222.286 94.813 222.176 94.8978 222.499C94.9833 222.823 96.0137 223.202 96.4244 223.076C97.295 222.808 97.895 221.963 98.0282 222.877C98.0352 222.931 97.5424 223.056 97.5908 223.245C97.9896 224.74 98.7172 226.094 99.1525 227.564C99.2114 227.766 98.6597 227.901 98.6892 228.022C98.992 229.285 99.5583 228.406 100.754 228.445C99.5261 229.045 99.0011 229.818 99.449 230.638C99.7174 231.131 100.175 230.728 100.707 230.82C100.867 230.847 100.714 231.413 100.986 231.326C101.877 231.042 102.563 230.166 102.686 231.226C102.69 231.274 102.2 231.425 102.246 231.569C102.537 232.5 103.402 232.085 103.997 232.914C104.463 233.564 104.66 235.119 105.023 235.965C103.716 236.77 104.431 237.333 105.496 237.071C105.747 237.611 106.109 238.136 106.263 238.713C106.316 238.912 105.877 239.037 105.848 239.084C105.396 239.82 106.392 239.493 106.488 239.583C107.493 240.58 107.381 241.982 108.668 242.726C108.714 242.752 109.652 242.247 109.166 242.972C109.132 243.021 108.509 242.9 108.779 243.462C109.05 244.024 109.136 245.353 109.973 245.841C110.175 245.959 111.164 245.956 110.798 246.689C110.747 246.787 110.459 246.897 110.354 247.059C110.024 247.579 111.005 247.127 110.381 247.888C109.758 248.648 109.491 249.578 110.448 249.999C110.477 250.013 111.3 249.735 111.421 249.981C111.614 250.374 111.765 251.011 111.991 251.405C112.1 251.595 112.481 251.188 112.507 251.216C113.473 252.338 113.581 253.503 114.171 254.985C114.279 255.258 115.293 255.593 115.081 256.386C114.849 257.256 112.341 258.101 113.55 258.998C114.036 259.361 117.18 258.22 116.229 260.027C117.55 261.528 117.699 263.595 119.176 265.003C119.243 265.067 120.159 264.82 120.251 265.01C120.385 265.292 120.103 265.673 120.188 265.882C120.531 266.765 121.258 267.312 121.646 268.127C121.795 268.437 121.359 268.571 121.537 268.94C121.713 269.308 122.341 269.23 122.37 269.863C122.39 270.342 121.578 271.348 121.728 271.905C122.739 271.289 122.903 271.634 123.495 272.056C123.609 272.136 123.89 271.795 123.962 271.821C124.263 271.925 124.086 272.31 124.397 272.393C124.472 272.414 124.815 272.2 124.896 272.204C125.593 272.236 125.146 273.298 125.067 273.482C124.77 274.184 125.313 274.079 125.276 274.497C125.237 274.914 124.745 274.638 124.813 275.055C124.954 275.917 125.513 276.786 125.895 277.51C126.049 277.798 126.396 277.315 126.429 277.349C126.874 277.866 126.72 278.768 127.811 278.52C125.69 280.416 128.236 278.731 128.236 279.872C128.235 279.962 127.171 280.75 126.866 280.599C126.561 280.446 126.693 279.84 126.242 279.648C126.136 279.602 124.828 279.781 124.728 279.756C123.95 279.555 125.569 278.432 125.646 278.347C126.458 277.416 125.011 277.54 124.847 277.435C124.099 276.954 123.998 276.206 123.416 275.776C123.037 275.494 121.929 276.145 121.793 275.82C121.341 274.742 122.662 273.43 120.818 273.313C120.424 273.287 119.348 274.242 119.876 272.92C119.91 272.837 120.462 271.753 119.747 271.783C119.658 271.787 119.312 272.007 119.254 271.974C118.872 271.746 119.019 271.339 118.676 271.044C118.333 270.749 117.882 270.419 117.759 269.912C117.684 269.607 118.143 268.864 118.232 268.64C118.491 267.999 117.534 268.095 117.963 267.527C118.395 266.957 119.475 266.854 119.512 266.051C118.601 266.599 117.649 267.135 116.726 267.673C116.053 266.389 115.652 264.961 114.905 263.718C114.812 263.564 114.417 264.032 114.305 263.875C113.832 263.213 113.831 262.373 113.283 261.722C112.856 261.22 111.996 260.918 111.534 260.403C112.361 259.386 111.518 258.722 111.253 258.019C111.16 257.773 111.444 257.613 111.444 257.397C111.439 256.582 110.687 257.441 110.452 257.366C109.444 257.042 111.469 255.677 110.951 254.87C110.925 254.827 109.525 254.979 109.415 254.948C108.704 254.754 109.753 254.627 109.669 254.278C109.514 253.641 109.566 253.098 108.889 252.664C108.691 252.539 107.759 252.526 108.087 251.83C108.129 251.739 108.507 251.536 108.506 251.484C108.476 250.568 107.325 251.271 106.719 251.121C106.113 250.97 106.56 249.861 106.718 249.593C107.124 248.897 107.107 249.684 107.175 249.665C107.975 249.438 107.609 249.067 107.477 248.691C108.568 247.934 108.236 247.5 107.337 248.302C107.238 248.391 107.491 248.59 107.477 248.691C106.214 249.087 105.783 248.652 106.486 247.426C106.816 246.851 107.518 246.752 106.856 246.061C106.556 245.747 105.866 246.378 105.474 246.182C104.576 245.734 104.75 244.303 104.206 243.6C104.008 243.345 103.739 243.886 103.589 243.72C103.191 243.283 103.256 242.633 102.809 242.223C102.769 242.187 102.391 242.579 102.296 242.424C101.573 241.249 101.269 240.019 100.575 238.753C100.24 238.142 99.3901 237.207 99.0873 236.545C98.5602 235.4 98.4522 233.649 97.7765 232.813C97.3371 232.267 96.9705 232.68 96.5247 232.609C95.6618 232.474 96.2085 230.922 96.3032 230.7C96.3067 230.693 96.702 231.151 96.7728 230.728C97.1541 230.266 96.3081 230.704 96.3032 230.7C96.3635 230.555 95.8805 229.444 95.68 229.289C95.5714 229.205 95.1887 229.533 95.1396 229.485C93.9852 228.321 93.0978 226.985 92.502 225.442C92.4964 225.411 92.9849 225.153 92.966 225.085C92.7165 224.131 91.8508 223.967 91.1338 223.504C90.4167 223.041 90.231 222.431 90.8099 221.522C90.4237 221.074 90.3698 220.115 90.3494 219.556C90.3298 218.998 89.3871 219.515 89.3485 219.49C88.1268 218.695 88.2747 217.695 87.6859 216.441C87.4076 215.844 86.6436 214.793 86.1992 214.238C85.8466 213.799 85.8957 213.369 85.5081 213.005C85.4562 212.956 85.0854 213.274 85.0595 213.265C84.2941 213.068 85.4198 212.683 85.5382 212.467C85.9721 211.683 86.1852 211.234 85.5235 210.781C85.3714 210.676 83.7039 211.146 83.4698 210.928C83.1677 210.643 83.7529 210.452 83.4235 210.162C83.3962 210.137 83.0843 210.343 82.9714 210.107C82.4436 209.012 81.9852 207.744 81.3424 206.666C81.2555 206.518 80.8623 207.027 80.7291 206.819C80.1032 205.84 79.5011 204.713 79.1836 203.575C79.1072 203.293 79.5424 203.224 79.6167 203.105C80.0653 202.382 78.8941 202.5 78.8345 202.435C77.385 200.9 77.4389 198.988 76.0153 197.389C75.9361 197.303 74.5251 197.149 75.1728 196.271C75.2156 196.212 75.8857 195.326 75.1286 195.396C75.0817 195.401 74.7579 195.894 74.5959 195.494C74.4333 195.093 73.8046 194.682 74.0064 193.863C74.0695 193.604 74.7144 192.679 73.7618 192.629C73.6966 192.628 71.7354 192.862 72.6543 191.92C72.7237 191.85 73.0034 191.671 73.1997 191.478L73.1814 191.445C73.3146 191.361 73.4296 191.292 73.4282 191.189C73.4268 191.135 73.3952 191.072 73.3118 190.976C73.2656 190.945 73.1941 190.931 73.0798 190.916C72.9151 190.892 72.7623 191.231 72.4588 191.066C71.9198 190.682 71.9786 190.051 71.1361 189.759C71.0625 189.735 70.773 189.734 70.5424 189.636C70.3385 189.585 70.2011 189.451 70.4072 189.115C70.4709 189.009 70.8992 188.862 70.8508 188.673C70.7352 188.222 70.4829 187.8 70.2165 187.339C69.9869 186.943 69.7753 186.562 69.6713 186.063C69.5973 185.712 70.2901 185.474 70.2768 185.058C70.2621 184.638 70.0464 183.881 69.6114 183.781C69.1613 183.656 68.3846 184.613 68.0458 184.202C66.5107 182.307 65.9157 179.915 64.8273 177.835C64.6658 177.527 64.4664 178.003 64.2019 177.562C63.1847 175.863 61.2508 173.318 61.1058 171.352C61.0302 169.845 62.3043 170.957 62.0366 169.942C61.9052 169.452 60.5243 169.742 60.4292 169.664C59.4908 168.917 59.5476 167.853 58.8731 167.075C58.7341 166.916 58.3898 167.396 58.2766 167.257C57.8857 166.785 57.7533 166.092 57.4104 165.606C57.2555 165.388 56.9379 165.663 56.8375 165.434C56.593 164.887 56.4658 164.337 56.4851 163.617C56.4868 163.552 57.0987 163.57 56.8852 163.179C56.5448 162.556 56.4211 161.611 55.6739 161.141C55.4511 161.003 54.6653 161.531 54.9361 160.719C54.9923 160.549 56.0027 160.024 54.8777 160.062C54.6902 160.068 53.0674 159.949 53.5072 159.032C53.6234 158.792 54.2191 157.984 53.949 157.823C53.9096 157.802 53.572 158.224 53.4075 158.051C52.8348 157.434 52.4178 156.652 51.8301 156.002C51.6723 155.829 51.4217 156.425 51.2004 156.158C50.5899 155.422 50.0713 154.331 49.7228 153.461C49.5937 153.137 50.075 153.085 50.1008 153.038C50.5223 152.255 49.5443 152.655 49.4245 152.578C48.6907 152.089 48.7565 151.273 48.2435 150.701C48.1031 150.542 47.777 150.956 47.7185 150.947C47.133 150.829 48.0344 150.586 47.9676 150.296C47.7791 149.474 47.2986 148.789 46.8302 148.17C46.6582 147.943 46.3603 148.549 46.2113 148.342C45.3225 147.127 44.5097 145.756 43.9723 144.337C43.8713 144.068 44.3255 143.953 44.3763 143.845C44.7345 143.093 43.6331 143.171 43.4855 143.113C42.8124 142.848 43.0003 142.417 42.6461 142.008C40.9094 140.007 39.3269 137.147 38.0636 134.988C36.4165 132.177 35.3261 129.846 33.4699 127.399C33.3527 127.244 33.0004 127.771 32.8936 127.642C31.5411 125.972 30.4472 124.052 29.0531 122.442C28.9386 122.309 28.6558 122.872 28.4549 122.665C28.0371 122.241 27.6165 121.622 27.4007 121.033C27.2944 120.746 27.8974 120.748 27.7827 120.466C27.5163 119.807 27.1128 119.205 26.6297 118.717C26.4233 118.511 26.2493 119.231 26.0157 118.936C24.3694 116.867 22.7813 115.003 21.6388 112.437C21.5633 112.264 22.3288 111.353 21.9204 111.211C21.6624 111.409 21.3814 111.669 21.1173 111.894C18.598 109.152 16.4256 106.083 13.9016 103.507C13.7927 103.396 13.5657 104.046 13.354 103.836C12.1526 102.649 10.8413 101.688 9.97363 100.193C9.88888 100.048 10.6059 99.2093 10.1438 99.0593C10.0523 99.0235 9.36304 98.6864 9.0826 98.7824C9.04258 98.7978 8.85669 99.2983 8.66561 99.1791C7.60916 98.5111 6.53745 97.731 5.78796 97.084C5.64982 96.9712 6.02401 96.5289 5.92315 96.4434C5.17483 95.8252 4.42182 96.1392 4.13564 95.6885C3.88348 95.3892 3.84243 94.4394 3.40299 93.6039C3.33381 93.484 3.03462 93.5745 2.82213 93.0915C2.26795 91.874 2.03915 90.3775 1.43717 89.0843C1.2978 88.7906 0.390409 89.6275 0.708934 88.6315C0.726134 88.5558 1.45347 87.9663 1.61123 87.6593C1.71926 87.4385 1.28317 87.0102 1.55949 86.6843C1.85079 86.3583 2.31276 86.7018 2.83155 86.3394C3.35695 85.9903 3.09234 85.3658 4.18724 85.2221ZM90.2527 217.045C90.4721 216.377 88.8389 217.334 89.4578 217.514C89.4894 217.521 90.2422 217.079 90.2527 217.045ZM116.863 264.204C117.284 263.245 116.051 263.553 115.706 264.259C115.363 264.964 116.735 264.495 116.863 264.204ZM120.331 269.179C120.555 268.229 118.233 269.572 119.049 269.922C119.095 269.943 120.319 269.234 120.331 269.179ZM4.74247 93.2135C4.73933 93.1854 4.46823 93.149 4.46216 93.1763C4.30713 93.7833 4.78087 93.852 4.74247 93.2135ZM123.823 274.085C124.027 273.704 123.373 273.391 123.12 273.865C122.917 274.246 123.57 274.559 123.823 274.085ZM80.5973 195.563C80.6177 195.541 80.5125 195.301 80.3808 195.391C79.9546 195.681 80.2532 195.919 80.5973 195.563ZM128.83 283.01C128.18 281.635 129.608 279.647 130.198 281.22C130.305 281.504 129.288 281.037 129.303 281.475C129.333 282.277 130.734 281.934 130.449 282.953C130.396 283.139 128.863 283.092 128.826 283.01C128.827 283.01 128.829 283.01 128.83 283.01ZM92.0499 215.603C92.0667 215.581 91.9118 215.255 91.8866 215.261C91.2838 215.412 91.595 216.07 92.0499 215.603ZM74.2146 181.72C74.2307 181.642 73.8936 180.945 73.8361 180.943C72.8015 181.111 73.5165 182.583 74.2146 181.72ZM104.995 235.999C105.698 236.018 105.986 236.39 105.496 237.069C105.34 236.707 105.155 236.362 104.995 235.999ZM223.296 120.804C223.27 120.89 223.395 120.956 223.531 120.932C223.667 120.911 223.753 120.794 223.706 120.674C223.676 120.6 223.666 120.258 223.62 120.197C223.512 120.079 223.416 120.269 223.194 120.178C223.116 120.148 223.056 119.605 222.968 119.588C222.427 119.534 222.093 119.845 221.475 120.083C218.467 121.26 215.2 124.446 212.433 127.455C211.472 128.501 209.987 129.649 209.302 130.913C209.218 131.065 209.634 131.268 209.644 131.318C209.787 132.085 209.172 131.376 208.876 131.572C207.717 132.331 206.712 133.671 206.153 134.786C205.906 135.275 206.939 135.366 206.223 135.513C206.174 135.523 205.864 135.124 205.739 135.216C205.453 135.425 205.158 136.011 204.977 136.21C204.626 136.592 204.582 136.667 204.302 137.072C203.918 137.625 203.272 138.166 202.952 138.853C202.886 139 203.406 139.106 203.336 139.367C203.264 139.629 202.868 140.161 202.663 140.265C202.451 140.378 202.181 140.082 202.088 140.063C201.3 139.899 201.759 141.108 201.729 141.203C201.157 142.912 199.855 143.878 198.961 145.338C198.279 146.454 197.787 147.644 197.144 148.669C196.383 149.875 195.532 150.792 194.852 152.049C194.78 152.182 195.363 152.333 195.276 152.495C194.368 154.187 193.402 155.748 192.119 157.224C191.99 157.371 191.674 156.895 191.52 157.027C190.587 157.826 188.78 159.007 190.373 160.699C189.92 161.337 189.383 162.126 188.657 162.523C188.189 162.779 187.922 162.114 187.857 162.724C187.842 162.861 188.342 162.959 188.287 163.146C188.058 163.936 187.501 164.628 187.339 165.454C187.307 165.623 187.706 165.798 187.752 165.877C188.12 166.53 186.902 166.581 186.769 166.668C185.761 167.344 185.599 168.118 185.125 168.978C185.015 169.177 185.651 169.224 185.564 169.426C185.103 170.469 184.507 171.49 183.757 172.359C183.588 172.552 183.26 172.109 183.157 172.188C182.709 172.545 183.478 173.1 183.066 173.452C182.979 173.526 182.634 173.268 182.584 173.263C181.799 173.181 182.588 173.916 182.571 173.996C182.386 175.027 181.136 175.081 180.837 175.99C180.802 176.1 181.393 176.13 181.266 176.424C180.42 178.379 179.259 180.32 177.915 182.016C177.707 182.281 177.456 181.88 177.403 181.875C176.561 181.814 177.384 182.499 177.37 182.613C177.232 183.51 176.106 183.799 176.948 184.892C174.959 187.882 173.981 191.422 171.426 194.105C171.394 194.139 170.972 193.833 170.911 193.903C170.175 194.749 170.979 194.925 171.534 196.013C171.673 196.287 170.38 196.249 170.281 196.254C169.92 196.27 169.318 195.758 169.238 195.784C168.589 196.008 170.88 197.079 170.59 197.676C170.577 197.693 170.2 197.405 170.134 197.433C169.929 197.524 170.019 197.762 169.802 197.842C169.301 198.024 168.144 197.595 168.524 198.45C168.574 198.56 169.905 199.102 169.586 199.605C169.458 199.805 169.024 200.759 168.813 200.983C168.602 201.206 168.277 200.817 168.25 200.827C167.36 201.267 167.264 200.883 166.282 200.836C165.304 200.792 167.274 201.653 167.419 201.906C167.563 202.159 166.861 202.456 166.642 202.507C166.423 202.557 166.238 202.266 166.094 202.336C165.15 202.805 166.889 203.145 167.075 203.545C167.517 204.493 165.87 204.241 165.473 204.71C165.366 204.837 165.748 204.88 165.717 205.024C165.588 205.595 164.995 205.683 165.127 206.469C165.148 206.597 165.783 207.492 165.007 207.487C164.896 207.485 164.597 207.187 164.414 207.366C164.14 207.632 163.782 208.183 163.733 208.598C163.697 208.903 164.427 208.892 164.088 209.131C163.938 209.238 163.723 208.798 163.467 209.011C163.214 209.224 162.898 209.931 162.785 210.202C162.672 210.474 163.187 210.546 163.207 210.583C163.317 210.797 163.293 211.41 163.271 211.455C162.256 213.755 160.549 215.429 159.758 217.787C159.696 217.971 160.221 218.081 160.217 218.112C160.137 218.804 159.102 217.73 158.488 217.945C159.473 218.345 159.185 218.508 159.096 218.979C159.054 219.206 159.476 219.274 159.505 219.31C159.929 219.88 159.106 219.74 158.932 219.722C158.292 219.658 158.839 220.184 158.411 220.143C157.985 220.104 157.59 219.536 157.411 219.94C157.702 220.217 158.736 220.349 158.74 220.723C158.758 222.136 157.077 223.924 156.583 224.808C156.08 225.71 156.006 226.041 155.633 226.526C154.961 227.4 155.791 227.356 155.82 228.106C155.848 228.857 154.342 227.788 153.949 227.709C153.558 227.629 153.878 227.894 153.635 227.909C153.394 227.924 153.258 227.581 153.072 227.796C152.885 228.012 153.203 228.988 153.532 229.249C154.229 229.803 155.189 229.883 154.602 230.404C154.568 230.433 154.192 230.108 154.083 230.232C153.226 231.23 152.685 232.37 151.85 233.43C151.736 233.571 151.32 233.203 151.249 233.283C150.5 234.117 151.469 234.145 152.13 235.098C150.984 234.42 150.117 234.375 149.78 235.106C149.577 235.545 150.135 235.712 150.376 236.168C150.45 236.305 149.95 236.449 150.171 236.619C150.894 237.178 151.927 237.305 151.231 237.887C151.2 237.912 150.805 237.604 150.727 237.705C150.225 238.356 151.028 238.834 150.779 239.666C150.591 240.303 149.568 241.205 149.161 241.894C147.816 241.258 147.82 242.085 148.629 242.788C148.383 243.238 148.213 243.765 147.886 244.153C147.773 244.287 147.427 244.006 147.376 244.007C146.581 244.001 147.398 244.616 147.39 244.731C147.257 245.97 146.195 246.502 146.412 247.842C146.419 247.891 147.332 248.38 146.52 248.353C146.465 248.35 146.192 247.803 145.938 248.29C145.683 248.776 144.767 249.485 144.904 250.362C144.937 250.575 145.518 251.336 144.776 251.398C144.675 251.405 144.427 251.235 144.249 251.231C143.679 251.22 144.581 251.762 143.668 251.638C142.754 251.514 141.929 251.742 142.196 252.659C142.203 252.687 142.889 253.185 142.786 253.388C142.622 253.707 142.254 254.12 142.094 254.501C142.019 254.681 142.537 254.777 142.532 254.812C142.275 256.122 141.495 256.769 140.78 257.914C140.648 258.124 141.011 259.05 140.32 259.25C139.566 259.47 137.466 257.97 137.555 259.277C137.572 259.845 140.239 261.739 138.37 261.888C138.048 263.673 136.718 264.62 136.557 266.489C136.549 266.574 137.266 267.166 137.182 267.333C137.055 267.58 136.614 267.551 136.512 267.72C136.076 268.422 136.118 269.234 135.776 269.896C135.647 270.146 135.29 269.884 135.138 270.18C134.981 270.488 135.44 270.861 134.984 271.234C134.641 271.505 133.427 271.392 133.112 271.791C134.156 272.264 134.001 272.569 134.053 273.223C134.063 273.348 134.475 273.397 134.5 273.465C134.605 273.743 134.226 273.792 134.354 274.062C134.385 274.128 134.743 274.286 134.789 274.348C135.187 274.885 134.173 275.025 133.998 275.046C133.329 275.134 133.739 275.472 133.4 275.686C133.068 275.885 132.987 275.339 132.717 275.621C132.159 276.206 131.867 277.065 131.597 277.664C131.491 277.903 132.041 277.945 132.037 277.984C131.993 278.259 131.796 278.458 131.715 278.671C131.604 278.956 131.618 279.239 132.028 279.605C129.389 278.944 132.113 280.079 131.311 280.605C131.247 280.645 130.046 280.219 129.966 279.926C129.886 279.633 130.399 279.436 130.277 278.972C130.247 278.867 129.356 277.907 129.32 277.806C129.002 277.102 130.756 277.837 130.866 277.845C132.005 278.039 131.037 277.027 131.014 276.853C130.903 276.066 131.388 275.601 131.369 274.898C131.361 274.434 130.232 273.907 130.372 273.672C130.846 272.873 132.57 273.253 131.555 271.789C131.339 271.473 130.01 271.123 131.281 270.865C131.361 270.85 132.476 270.726 132.039 270.172C131.984 270.103 131.619 269.946 131.61 269.882C131.563 269.441 131.93 269.386 131.93 269C131.928 268.616 131.89 268.13 132.176 267.801C132.347 267.602 133.152 267.599 133.366 267.559C133.978 267.451 133.343 266.762 134.007 266.814C134.675 266.865 135.387 267.651 135.991 267.281C135.056 266.847 134.107 266.376 133.172 265.927C133.728 264.717 134.491 263.783 134.932 262.641C134.986 262.498 134.417 262.418 134.462 262.259C134.655 261.588 135.258 261.183 135.409 260.438C135.523 259.859 135.241 259.033 135.352 258.403C136.571 258.554 136.533 257.632 136.88 257.104C137.001 256.92 137.283 257.061 137.438 256.96C138.019 256.577 136.957 256.404 136.872 256.19C136.509 255.266 138.687 256.174 138.965 255.387C138.98 255.347 138.049 254.335 138.008 254.234C137.733 253.587 138.438 254.341 138.643 254.104C139.017 253.671 139.444 253.443 139.369 252.693C139.348 252.469 138.797 251.773 139.489 251.702C139.58 251.693 139.949 251.886 139.985 251.862C140.621 251.422 139.438 250.868 139.188 250.336C138.938 249.804 139.999 249.629 140.285 249.624C141.026 249.609 140.449 249.966 140.503 250.008C141.137 250.516 141.188 250.063 141.382 249.784C142.569 250.268 142.687 249.807 141.58 249.493C141.459 249.459 141.463 249.747 141.382 249.784C140.356 248.999 140.416 248.46 141.717 248.418C142.327 248.398 142.807 248.898 142.924 248.049C142.978 247.663 142.118 247.432 142.032 247.029C141.841 246.103 142.983 245.552 143.161 244.828C143.228 244.56 142.682 244.601 142.713 244.411C142.793 243.907 143.299 243.658 143.332 243.124C143.335 243.075 142.831 242.967 142.888 242.822C143.313 241.718 144.03 240.902 144.551 239.752C144.801 239.202 145.006 238.059 145.296 237.546C145.812 236.623 147.016 235.733 147.231 234.819C147.373 234.224 146.861 234.131 146.654 233.751C146.253 233.016 147.701 232.711 147.919 232.681C147.926 232.68 147.819 233.206 148.169 233.061C148.725 233.142 147.918 232.687 147.919 232.681C148.059 232.66 148.593 231.755 148.591 231.523C148.59 231.398 148.13 231.253 148.138 231.192C148.332 229.722 148.767 228.467 149.551 227.283C149.57 227.265 150.04 227.527 150.077 227.481C150.628 226.847 150.25 226.096 150.177 225.319C150.103 224.543 150.444 224.112 151.441 224.141C151.549 223.629 152.222 223.136 152.62 222.857C153.016 222.586 152.098 222.089 152.094 222.047C151.969 220.738 152.782 220.398 153.361 219.366C153.638 218.876 153.97 217.796 154.125 217.191C154.245 216.713 154.589 216.553 154.636 216.08C154.643 216.016 154.198 215.87 154.19 215.845C153.9 215.152 154.821 215.862 155.048 215.855C155.869 215.836 156.321 215.797 156.279 215.065C156.27 214.897 154.981 213.794 155.005 213.515C155.041 213.15 155.514 213.523 155.539 213.134C155.541 213.101 155.213 212.949 155.322 212.754C155.822 211.847 156.492 210.913 156.919 209.917C156.979 209.782 156.383 209.702 156.461 209.503C156.826 208.565 157.316 207.576 157.976 206.806C158.141 206.617 158.436 206.93 158.566 206.935C159.351 206.962 158.606 206.087 158.62 206.01C158.937 204.166 160.369 203.361 160.753 201.513C160.772 201.413 160.096 200.222 161.106 200.344C161.173 200.351 162.202 200.486 161.728 199.916C161.698 199.881 161.153 199.844 161.358 199.536C161.563 199.228 161.517 198.543 162.234 198.337C162.462 198.271 163.505 198.37 163.011 197.59C162.976 197.537 161.713 196.078 162.919 196.391C163.118 196.443 164.255 197.065 163.909 196.256C163.842 196.1 163.498 196.148 163.462 195.809C163.405 195.29 163.968 194.923 163.689 194.178C163.639 194.048 163.031 193.291 163.766 193.303C163.882 193.305 164.225 193.586 164.342 193.456C164.902 192.836 165.016 191.946 165.642 191.346C165.863 191.134 166.42 191.584 166.72 191.398C167.02 191.213 167.448 190.749 167.303 190.32C167.159 189.891 166.015 189.693 166.146 189.227C166.712 187.201 168.205 185.66 169.209 183.865C169.359 183.599 168.892 183.641 169.087 183.235C169.802 181.739 170.761 179.012 172.169 178.113C173.293 177.401 173.088 178.941 173.733 178.282C174.042 177.966 173.109 176.946 173.121 176.835C173.213 175.745 174.037 175.396 174.294 174.512C174.347 174.33 173.801 174.243 173.852 174.09C174.019 173.567 174.486 173.173 174.685 172.696C174.773 172.481 174.402 172.328 174.527 172.154C174.82 171.738 175.181 171.411 175.744 171.144C175.795 171.12 176.089 171.633 176.282 171.302C176.593 170.768 177.273 170.267 177.267 169.456C177.264 169.214 176.465 168.765 177.23 168.671C177.389 168.651 178.296 169.289 177.708 168.366C177.611 168.211 176.901 166.811 177.826 166.831C178.069 166.835 178.992 167.016 178.985 166.727C178.982 166.685 178.488 166.567 178.543 166.36C178.746 165.635 179.152 164.986 179.37 164.252C179.428 164.056 178.843 164.068 178.943 163.784C179.222 162.991 179.837 162.122 180.363 161.485C180.558 161.25 180.826 161.642 180.877 161.645C181.693 161.705 180.916 161.025 180.921 160.893C180.961 160.081 181.636 159.833 181.845 159.189C181.904 159.012 181.425 158.886 181.406 158.833C181.224 158.292 181.837 158.97 182.034 158.808C182.59 158.356 182.914 157.686 183.186 157.068C183.286 156.841 182.67 156.803 182.764 156.602C183.302 155.433 184.061 154.184 184.96 153.216C185.132 153.032 185.424 153.386 185.534 153.392C186.297 153.436 185.747 152.509 185.728 152.36C185.645 151.683 186.074 151.697 186.247 151.25C187.069 149.096 188.761 146.689 190.017 144.887C191.635 142.565 193.146 140.873 194.526 138.48C194.613 138.329 194.044 138.16 194.114 138.026C195.034 136.308 196.21 134.895 197.202 133.102C197.282 132.959 196.709 132.841 196.824 132.6C197.053 132.106 197.454 131.562 197.894 131.222C198.107 131.056 198.289 131.618 198.496 131.446C198.977 131.046 199.372 130.54 199.649 129.988C199.767 129.752 199.097 129.743 199.285 129.462C200.603 127.469 201.989 125.4 203.946 124.044C204.077 123.955 205.05 124.544 205.109 124.116C204.886 123.892 204.603 123.655 204.354 123.429C205.423 121.916 206.584 120.591 207.754 119.386C209.075 118.008 210.417 116.761 211.705 115.586C211.833 115.469 211.221 115.217 211.47 114.986C212.948 113.63 214.057 112.467 216.195 111.776C216.406 111.71 216.842 112.697 217.275 112.24C217.35 112.154 218.068 111.579 218.184 111.261C218.2 111.213 217.84 110.834 218.103 110.681C219.43 109.886 221.991 109.076 224.17 109.452C224.555 109.511 224.119 110.05 224.382 110.098C226.169 110.398 228.379 110.859 229.338 112.252C229.973 113.189 229.071 113.688 228.812 114.711C228.774 114.85 229.132 115.26 228.759 115.656C227.822 116.637 226.643 117.54 225.667 118.611C225.453 118.833 225.932 118.887 225.244 119.23C225.195 119.248 224.868 119.256 224.668 119.419C224.529 119.529 224.184 119.961 224.001 120.096C223.825 120.239 224.093 119.86 223.889 120.035C223.697 120.226 223.32 120.729 223.296 120.804ZM154.39 221.646C155.002 221.514 153.37 220.674 153.593 221.238C153.606 221.267 154.36 221.653 154.39 221.646ZM135.757 264.338C136.688 264.22 135.732 263.431 135.025 263.496C134.318 263.561 135.475 264.375 135.757 264.338ZM134.241 269.392C135.047 269.126 132.701 268.002 132.944 268.772C132.957 268.816 134.194 269.407 134.241 269.392ZM227.02 113.705C227.016 113.728 227.311 113.927 227.33 113.912C227.817 113.484 227.172 113.053 227.02 113.705ZM132.818 274.4C133.207 274.383 133.031 273.758 132.545 273.784C132.153 273.807 132.334 274.423 132.818 274.4ZM164.665 204.328C164.691 204.334 164.81 204.144 164.669 204.08C164.217 203.872 164.209 204.214 164.665 204.328ZM129.463 282.511C129.687 282.096 130.446 281.731 131.009 281.729C131.579 281.707 131.911 282.148 131.526 282.763C131.386 282.986 131.113 281.97 130.805 282.208C130.522 282.43 130.668 282.73 130.781 282.986C130.81 283.05 130.837 283.11 130.854 283.165C130.869 283.179 130.855 283.255 130.846 283.311C130.836 283.369 130.824 283.421 130.81 283.467C130.755 283.652 130.662 283.744 130.493 283.68C130.435 283.648 130.093 283.554 129.855 283.253C129.735 283.106 129.64 282.909 129.585 282.726C129.527 282.549 129.449 282.534 129.461 282.509C129.462 282.509 129.462 282.511 129.463 282.511ZM156.471 222.393C156.496 222.396 156.645 222.128 156.626 222.111C156.17 221.71 155.87 222.251 156.471 222.393ZM171.342 193.137C171.396 193.145 171.754 192.525 171.722 192.483C171.038 191.714 170.311 192.966 171.342 193.137ZM149.119 241.889C149.513 242.445 149.409 242.846 148.631 242.787C148.804 242.494 148.948 242.185 149.119 241.889Z" fill="#FF4646" />
  <path d="M131.842 294.031L126.563 289.682L132.777 285.532L131.842 294.031Z" fill="#EAC700" />
  <path d="M128.769 280.34L132.779 285.539L129.094 287.995L128.769 280.34Z" fill="#EAC700" />
  <path d="M126.247 282.021L130.257 287.219L126.573 289.676L126.247 282.021Z" fill="#EAC700" />
  <path d="M128.992 285.577L128.767 280.332L126.246 282.015L128.992 285.577Z" fill="#EAC700" />
  <path d="M131.843 294.031C131.843 294.031 129.606 287.416 127.526 281.266" stroke="white" stroke-width="0.1" />
  <path d="M129.667 295.32L126.529 287.643L133.267 288.533L129.667 295.32Z" fill="#EAC700" />
  <path d="M131.506 281.043L133.266 288.54L129.272 288.008L131.506 281.043Z" fill="#EAC700" />
  <path d="M128.773 280.679L130.534 288.176L126.54 287.644L128.773 280.679Z" fill="#EAC700" />
  <path d="M129.978 285.809L131.506 281.035L128.773 280.673L129.978 285.809Z" fill="#EAC700" />
  <path d="M129.667 295.319C129.667 295.319 129.906 287.872 130.128 280.948" stroke="white" stroke-width="0.1" />
  <path d="M200.467 231.233C199.832 232.119 198.795 232.695 197.622 232.695C196.263 232.695 195.085 231.922 194.503 230.792C193.569 231.222 192.679 231.732 191.842 232.314C191.953 232.655 192.014 233.019 192.014 233.396C192.014 235.332 190.445 236.901 188.509 236.901C188.131 236.901 187.767 236.84 187.427 236.729C186.773 237.67 186.209 238.677 185.748 239.738C186.526 240.342 187.043 241.265 187.101 242.312L136.046 245.824L135.981 244.918V246.028H135.97C135.69 250.317 130.311 253.738 123.715 253.738C117.119 253.738 111.74 250.317 111.461 246.028H111.449V244.92L111.384 245.825L56.9143 242.077C56.8252 241.769 56.776 241.444 56.776 241.107C56.776 239.98 57.3088 238.978 58.1354 238.337C57.6741 237.275 57.1102 236.268 56.457 235.327C56.116 235.438 55.7521 235.499 55.3741 235.499C53.4385 235.499 51.8694 233.931 51.8694 231.995C51.8694 231.617 51.9305 231.253 52.0413 230.912C51.2043 230.331 50.3143 229.82 49.3799 229.39C48.9013 230.321 48.0181 231.008 46.9629 231.222V161.215L111.449 165.65V166.121H111.74C112.959 169.731 117.857 172.43 123.715 172.43C129.574 172.43 134.472 169.731 135.69 166.121H135.981V165.65L200.467 161.214V231.233ZM200.996 161.179H200.976L200.996 161.178V161.179Z" fill="#3E9838" />
  <mask id="mask0_70_951" style="mask-type:luminance" maskUnits="userSpaceOnUse" x="46" y="161" width="155" height="93">
    <path d="M200.467 231.233C199.832 232.119 198.795 232.695 197.622 232.695C196.263 232.695 195.085 231.922 194.503 230.792C193.569 231.222 192.679 231.732 191.842 232.314C191.953 232.655 192.014 233.019 192.014 233.396C192.014 235.332 190.445 236.901 188.509 236.901C188.131 236.901 187.767 236.84 187.427 236.729C186.773 237.67 186.209 238.677 185.748 239.738C186.526 240.342 187.043 241.265 187.101 242.312L136.046 245.824L135.981 244.918V246.028H135.97C135.69 250.317 130.311 253.738 123.715 253.738C117.119 253.738 111.74 250.317 111.461 246.028H111.449V244.92L111.384 245.825L56.9143 242.077C56.8252 241.769 56.776 241.444 56.776 241.107C56.776 239.98 57.3088 238.978 58.1354 238.337C57.6741 237.275 57.1102 236.268 56.457 235.327C56.116 235.438 55.7521 235.499 55.3741 235.499C53.4385 235.499 51.8694 233.931 51.8694 231.995C51.8694 231.617 51.9305 231.253 52.0413 230.912C51.2043 230.331 50.3143 229.82 49.3799 229.39C48.9013 230.321 48.0181 231.008 46.9629 231.222V161.215L111.449 165.65V166.121H111.74C112.959 169.731 117.857 172.43 123.715 172.43C129.574 172.43 134.472 169.731 135.69 166.121H135.981V165.65L200.467 161.214V231.233ZM200.996 161.179H200.976L200.996 161.178V161.179Z" fill="white" />
  </mask>
  <g mask="url(#mask0_70_951)">
    <path d="M200.467 231.234L201.606 232.051L201.869 231.684V231.234H200.467ZM194.503 230.792L195.75 230.151L195.136 228.957L193.917 229.519L194.503 230.792ZM191.842 232.315L191.042 231.163L190.187 231.757L190.508 232.747L191.842 232.315ZM187.426 236.73L187.859 235.397L186.869 235.075L186.274 235.93L187.426 236.73ZM185.747 239.739L184.462 239.18L184.028 240.18L184.889 240.847L185.747 239.739ZM187.101 242.312L187.197 243.711L188.577 243.616L188.501 242.234L187.101 242.312ZM136.045 245.824L134.647 245.924L134.746 247.319L136.141 247.223L136.045 245.824ZM135.981 244.919L137.379 244.819L134.579 244.919H135.981ZM135.981 246.028V247.43H137.383V246.028H135.981ZM135.969 246.028V244.627H134.655L134.57 245.937L135.969 246.028ZM111.461 246.028L112.86 245.937L112.774 244.627H111.461V246.028ZM111.448 246.028H110.046V247.43H111.448V246.028ZM111.448 244.92H112.85L110.05 244.821L111.448 244.92ZM111.384 245.826L111.288 247.224L112.683 247.32L112.782 245.925L111.384 245.826ZM56.9138 242.078L55.5671 242.468L55.8393 243.41L56.8176 243.477L56.9138 242.078ZM58.135 238.337L58.9941 239.445L59.8547 238.778L59.4207 237.778L58.135 238.337ZM56.4566 235.328L57.6079 234.528L57.0139 233.673L56.0236 233.995L56.4566 235.328ZM52.0408 230.913L53.3741 231.345L53.6957 230.355L52.8406 229.761L52.0408 230.913ZM49.3795 229.39L49.966 228.117L48.7468 227.555L48.1328 228.749L49.3795 229.39ZM46.9624 231.223H45.5605V232.938L47.2417 232.596L46.9624 231.223ZM46.9624 161.215L47.0587 159.817L45.5605 159.714V161.215H46.9624ZM111.448 165.651H112.85V164.342L111.544 164.252L111.448 165.651ZM111.448 166.122H110.046V167.524H111.448V166.122ZM111.74 166.122L113.068 165.674L112.746 164.72H111.74V166.122ZM135.689 166.122V164.72H134.683L134.361 165.674L135.689 166.122ZM135.981 166.122V167.524H137.383V166.122H135.981ZM135.981 165.65L135.885 164.252L134.579 164.341V165.65H135.981ZM200.467 161.215H201.869V159.713L200.371 159.816L200.467 161.215ZM200.995 161.18V162.581H202.397V161.18H200.995ZM200.976 161.18L200.879 159.781L200.976 162.581V161.18ZM200.995 161.178H202.397V159.677L200.899 159.78L200.995 161.178ZM200.467 231.234L199.329 230.416C198.944 230.951 198.323 231.294 197.621 231.294V232.696V234.098C199.266 234.098 200.719 233.287 201.606 232.051L200.467 231.234ZM197.621 232.696V231.294C196.808 231.294 196.101 230.833 195.75 230.151L194.503 230.792L193.256 231.433C194.068 233.012 195.716 234.098 197.621 234.098V232.696ZM194.503 230.792L193.917 229.519C192.907 229.984 191.946 230.535 191.042 231.163L191.842 232.315L192.642 233.466C193.412 232.931 194.231 232.461 195.089 232.065L194.503 230.792ZM191.842 232.315L190.508 232.747C190.575 232.953 190.612 233.171 190.612 233.397H192.014H193.416C193.416 232.867 193.329 232.357 193.175 231.881L191.842 232.315ZM192.014 233.397H190.612C190.612 234.558 189.67 235.5 188.509 235.5V236.902V238.303C191.219 238.303 193.416 236.107 193.416 233.397H192.014ZM188.509 236.902V235.5C188.283 235.5 188.065 235.464 187.859 235.397L187.426 236.73L186.993 238.064C187.47 238.218 187.979 238.303 188.509 238.303V236.902ZM187.426 236.73L186.274 235.93C185.569 236.945 184.96 238.033 184.462 239.18L185.747 239.739L187.034 240.298C187.458 239.322 187.976 238.395 188.577 237.53L187.426 236.73ZM185.747 239.739L184.889 240.847C185.358 241.212 185.666 241.765 185.701 242.39L187.101 242.312L188.501 242.234C188.419 240.766 187.692 239.474 186.607 238.631L185.747 239.739ZM187.101 242.312L187.005 240.914L135.949 244.426L136.045 245.824L136.141 247.223L187.197 243.711L187.101 242.312ZM136.045 245.824L137.444 245.725L137.379 244.819L135.981 244.919L134.583 245.018L134.647 245.924L136.045 245.824ZM135.981 244.919H134.579V246.028H135.981H137.383V244.919H135.981ZM135.981 246.028V244.627H135.969V246.028V247.43H135.981V246.028ZM135.969 246.028L134.57 245.937C134.469 247.49 133.428 249.066 131.462 250.307C129.511 251.538 126.783 252.337 123.715 252.337V253.739V255.141C127.242 255.141 130.502 254.228 132.959 252.677C135.401 251.135 137.189 248.856 137.367 246.12L135.969 246.028ZM123.715 253.739V252.337C120.646 252.337 117.919 251.538 115.967 250.307C114.002 249.066 112.961 247.49 112.86 245.937L111.461 246.028L110.062 246.12C110.24 248.856 112.029 251.135 114.471 252.677C116.927 254.228 120.188 255.141 123.715 255.141V253.739ZM111.461 246.028V244.627H111.448V246.028V247.43H111.461V246.028ZM111.448 246.028H112.85V244.92H111.448H110.046V246.028H111.448ZM111.448 244.92L110.05 244.821L109.985 245.726L111.384 245.826L112.782 245.925L112.847 245.02L111.448 244.92ZM111.384 245.826L111.48 244.427L57.01 240.68L56.9138 242.078L56.8176 243.477L111.288 247.224L111.384 245.826ZM56.9138 242.078L58.2606 241.689C58.2065 241.502 58.1774 241.308 58.1774 241.107H56.7755H55.3736C55.3736 241.582 55.443 242.038 55.5671 242.468L56.9138 242.078ZM56.7755 241.107H58.1774C58.1774 240.433 58.4943 239.833 58.9941 239.445L58.135 238.337L57.2758 237.23C56.1223 238.124 55.3736 239.528 55.3736 241.107H56.7755ZM58.135 238.337L59.4207 237.778C58.922 236.631 58.3129 235.543 57.6079 234.528L56.4566 235.328L55.3052 236.128C55.9066 236.993 56.4251 237.92 56.8492 238.896L58.135 238.337ZM56.4566 235.328L56.0236 233.995C55.8177 234.062 55.5998 234.098 55.3736 234.098L55.3736 235.5V236.902C55.9035 236.902 56.4133 236.816 56.8895 236.662L56.4566 235.328ZM55.3736 235.5L55.3736 234.098C54.2123 234.098 53.2708 233.156 53.2708 231.995H51.869H50.4671C50.4671 234.705 52.6639 236.902 55.3736 236.902V235.5ZM51.869 231.995H53.2708C53.2708 231.769 53.3072 231.551 53.3741 231.345L52.0408 230.913L50.7074 230.48C50.5528 230.955 50.4671 231.465 50.4671 231.995H51.869ZM52.0408 230.913L52.8406 229.761C51.9369 229.134 50.9758 228.582 49.966 228.117L49.3795 229.39L48.7928 230.663C49.652 231.059 50.4707 231.529 51.2411 232.064L52.0408 230.913ZM49.3795 229.39L48.1328 228.749C47.845 229.308 47.3135 229.72 46.6832 229.849L46.9624 231.223L47.2417 232.596C48.7218 232.296 49.9566 231.333 50.6261 230.031L49.3795 229.39ZM46.9624 231.223H48.3643V161.215H46.9624H45.5605V231.223H46.9624ZM46.9624 161.215L46.8662 162.614L111.352 167.049L111.448 165.651L111.544 164.252L47.0587 159.817L46.9624 161.215ZM111.448 165.651H110.046V166.122H111.448H112.85V165.651H111.448ZM111.448 166.122V167.524H111.74V166.122V164.72H111.448V166.122ZM111.74 166.122L110.412 166.57C111.169 168.813 113.01 170.63 115.327 171.866C117.659 173.111 120.579 173.832 123.715 173.832V172.43V171.028C120.992 171.028 118.533 170.4 116.647 169.393C114.746 168.377 113.529 167.04 113.068 165.674L111.74 166.122ZM123.715 172.43V173.832C126.851 173.832 129.771 173.111 132.103 171.866C134.419 170.63 136.261 168.813 137.018 166.57L135.689 166.122L134.361 165.674C133.9 167.04 132.684 168.377 130.782 169.393C128.896 170.4 126.437 171.028 123.715 171.028V172.43ZM135.689 166.122V167.524H135.981V166.122V164.72H135.689V166.122ZM135.981 166.122H137.383V165.65H135.981H134.579V166.122H135.981ZM135.981 165.65L136.077 167.048L200.563 162.613L200.467 161.215L200.371 159.816L135.885 164.252L135.981 165.65ZM200.467 161.215H199.065V231.234H200.467H201.869V161.215H200.467ZM200.995 161.18V159.778H200.976V161.18V162.581H200.995V161.18ZM200.976 161.18L201.072 162.578L201.092 162.577L200.995 161.178L200.899 159.78L200.879 159.781L200.976 161.18ZM200.995 161.178H199.594V161.18H200.995H202.397V161.178H200.995Z" fill="black" />
  </g>
  <path d="M123.172 167.812L123.138 167.82L123.034 167.4L123.172 167.812ZM123.644 167.82L123.611 167.812L123.749 167.4L123.644 167.82ZM151.028 140.605L123.729 166.649L124.307 166.513L166.012 136.682L166.597 145.038L124.994 166.35L125.273 166.284L180.979 142.428L180.54 150.795L129.93 165.185L194.212 150.013L192.901 158.286L125.507 166.443L123.946 166.887L123.615 167.056L123.606 167.168L123.632 167.202L123.606 167.177L123.599 167.279L123.555 167.256L123.572 167.47L123.595 167.339L123.564 167.781L123.518 167.777L123.567 167.495L123.514 167.493L123.533 167.107L123.527 167.101L123.437 167.148V167.189L123.39 167.182L123.346 167.189L123.345 167.148L123.255 167.101L123.247 167.108L123.269 167.493L123.214 167.495L123.264 167.777L123.217 167.781L123.187 167.339L123.21 167.47L123.226 167.256L123.182 167.279L123.175 167.178L123.151 167.202L123.175 167.169L123.167 167.056L122.836 166.888L121.274 166.443L53.8812 158.286L52.5703 150.013L116.848 165.184L66.242 150.795L65.8033 142.428L121.508 166.284L121.789 166.351L80.1856 145.038L80.7702 136.682L122.476 166.513L123.052 166.649L95.7554 140.605L97.7812 132.477L123.214 166.641L123.222 166.592L123.224 166.655L123.345 166.816V166.72L123.363 166.841L123.39 166.878L123.417 166.842L123.437 166.72V166.816L123.558 166.654L123.562 166.592L123.567 166.64L149.001 132.477L151.028 140.605ZM123.052 167.296L123.016 167.331L122.919 166.943L123.052 167.296ZM123.766 167.331L123.73 167.296L123.863 166.943L123.766 167.331ZM123.213 167.141L123.23 167.213L123.237 167.119L123.213 167.141ZM123.552 167.213L123.568 167.141L123.544 167.118L123.552 167.213ZM123.273 167.083L123.345 167.134V167.016L123.273 167.083ZM123.437 167.134L123.508 167.083L123.437 167.016V167.134ZM123.209 167.122L123.233 167.09L123.198 167.072L123.209 167.122ZM123.548 167.09L123.572 167.122L123.584 167.072L123.548 167.09ZM123.437 166.927V166.94L123.531 167.067L123.536 167.064L123.538 167.03L123.54 167.061L123.594 167.021L123.603 166.984L123.539 167.003L123.549 166.821L123.437 166.927ZM123.243 167.003L123.179 166.984L123.187 167.021L123.241 167.061L123.244 167.03L123.245 167.063L123.25 167.067L123.345 166.94V166.927L123.233 166.822L123.243 167.003ZM123.386 166.977L123.39 167.012L123.395 166.977L123.39 166.972L123.386 166.977ZM123.163 167.005L123.154 166.878L123.171 166.953L123.194 166.784L123.064 166.66L122.603 166.604L123.163 167.005ZM123.718 166.66L123.587 166.784L123.611 166.953L123.627 166.878L123.619 167.005L124.179 166.604L123.718 166.66ZM123.341 166.693L123.25 166.683L123.276 166.287L123.341 166.693ZM123.533 166.683L123.442 166.693L123.505 166.287L123.533 166.683ZM122.434 166.681L122.185 166.553L122.116 166.545L122.434 166.681ZM124.598 166.552L124.356 166.677L124.665 166.545L124.598 166.552Z" fill="#F3E7A7" />
  <mask id="mask1_70_951" style="mask-type:luminance" maskUnits="userSpaceOnUse" x="52" y="132" width="143" height="36">
    <path d="M123.172 167.812L123.138 167.82L123.034 167.4L123.172 167.812ZM123.644 167.82L123.611 167.812L123.749 167.4L123.644 167.82ZM151.028 140.605L123.729 166.649L124.307 166.513L166.012 136.682L166.597 145.038L124.994 166.35L125.273 166.284L180.979 142.428L180.54 150.795L129.93 165.185L194.212 150.013L192.901 158.286L125.507 166.443L123.946 166.887L123.615 167.056L123.606 167.168L123.632 167.202L123.606 167.177L123.599 167.279L123.555 167.256L123.572 167.47L123.595 167.339L123.564 167.781L123.518 167.777L123.567 167.495L123.514 167.493L123.533 167.107L123.527 167.101L123.437 167.148V167.189L123.39 167.182L123.346 167.189L123.345 167.148L123.255 167.101L123.247 167.108L123.269 167.493L123.214 167.495L123.264 167.777L123.217 167.781L123.187 167.339L123.21 167.47L123.226 167.256L123.182 167.279L123.175 167.178L123.151 167.202L123.175 167.169L123.167 167.056L122.836 166.888L121.274 166.443L53.8812 158.286L52.5703 150.013L116.848 165.184L66.242 150.795L65.8033 142.428L121.508 166.284L121.789 166.351L80.1856 145.038L80.7702 136.682L122.476 166.513L123.052 166.649L95.7554 140.605L97.7812 132.477L123.214 166.641L123.222 166.592L123.224 166.655L123.345 166.816V166.72L123.363 166.841L123.39 166.878L123.417 166.842L123.437 166.72V166.816L123.558 166.654L123.562 166.592L123.567 166.64L149.001 132.477L151.028 140.605ZM123.052 167.296L123.016 167.331L122.919 166.943L123.052 167.296ZM123.766 167.331L123.73 167.296L123.863 166.943L123.766 167.331ZM123.213 167.141L123.23 167.213L123.237 167.119L123.213 167.141ZM123.552 167.213L123.568 167.141L123.544 167.118L123.552 167.213ZM123.273 167.083L123.345 167.134V167.016L123.273 167.083ZM123.437 167.134L123.508 167.083L123.437 167.016V167.134ZM123.209 167.122L123.233 167.09L123.198 167.072L123.209 167.122ZM123.548 167.09L123.572 167.122L123.584 167.072L123.548 167.09ZM123.437 166.927V166.94L123.531 167.067L123.536 167.064L123.538 167.03L123.54 167.061L123.594 167.021L123.603 166.984L123.539 167.003L123.549 166.821L123.437 166.927ZM123.243 167.003L123.179 166.984L123.187 167.021L123.241 167.061L123.244 167.03L123.245 167.063L123.25 167.067L123.345 166.94V166.927L123.233 166.822L123.243 167.003ZM123.386 166.977L123.39 167.012L123.395 166.977L123.39 166.972L123.386 166.977ZM123.163 167.005L123.154 166.878L123.171 166.953L123.194 166.784L123.064 166.66L122.603 166.604L123.163 167.005ZM123.718 166.66L123.587 166.784L123.611 166.953L123.627 166.878L123.619 167.005L124.179 166.604L123.718 166.66ZM123.341 166.693L123.25 166.683L123.276 166.287L123.341 166.693ZM123.533 166.683L123.442 166.693L123.505 166.287L123.533 166.683ZM122.434 166.681L122.185 166.553L122.116 166.545L122.434 166.681ZM124.598 166.552L124.356 166.677L124.665 166.545L124.598 166.552Z" fill="white" />
  </mask>
  <g mask="url(#mask1_70_951)">
    <path d="M123.172 167.812L123.339 168.493L124.079 168.312L123.837 167.589L123.172 167.812ZM123.138 167.821L122.459 167.99L122.627 168.667L123.305 168.501L123.138 167.821ZM123.034 167.4L123.699 167.177L122.353 167.57L123.034 167.4ZM123.645 167.821L123.474 168.5L124.155 168.671L124.324 167.99L123.645 167.821ZM123.612 167.812L122.946 167.59L122.707 168.308L123.441 168.492L123.612 167.812ZM123.749 167.4L124.429 167.57L123.084 167.179L123.749 167.4ZM151.028 140.605L151.512 141.111L151.807 140.83L151.708 140.435L151.028 140.605ZM123.729 166.649L123.245 166.142L121.375 167.927L123.891 167.331L123.729 166.649ZM124.308 166.513L124.469 167.195L124.603 167.162L124.716 167.083L124.308 166.513ZM166.013 136.682L166.712 136.633L166.624 135.383L165.605 136.112L166.013 136.682ZM166.597 145.038L166.917 145.662L167.329 145.451L167.297 144.989L166.597 145.038ZM124.995 166.35L124.676 165.726L125.156 167.032L124.995 166.35ZM125.274 166.284L125.434 166.967L125.494 166.953L125.55 166.929L125.274 166.284ZM180.98 142.429L181.679 142.466L181.738 141.341L180.703 141.784L180.98 142.429ZM180.541 150.795L180.732 151.469L181.214 151.332L181.24 150.831L180.541 150.795ZM129.931 165.185L129.739 164.511L130.092 165.867L129.931 165.185ZM194.212 150.013L194.904 150.122L195.068 149.09L194.051 149.33L194.212 150.013ZM192.902 158.286L192.986 158.983L193.512 158.919L193.594 158.397L192.902 158.286ZM125.507 166.443L125.423 165.747L125.368 165.754L125.315 165.769L125.507 166.443ZM123.947 166.887L123.755 166.213L123.689 166.232L123.629 166.262L123.947 166.887ZM123.615 167.056L123.297 166.431L122.944 166.611L122.916 167.005L123.615 167.056ZM123.607 167.168L122.908 167.117L122.888 167.38L123.047 167.591L123.607 167.168ZM123.632 167.202L123.143 167.704L124.191 166.779L123.632 167.202ZM123.607 167.177L124.095 166.675L123.009 165.618L122.907 167.13L123.607 167.177ZM123.6 167.279L123.275 167.9L124.227 168.398L124.299 167.326L123.6 167.279ZM123.556 167.256L123.88 166.635L122.756 166.047L122.857 167.312L123.556 167.256ZM123.572 167.47L122.874 167.526L124.263 167.593L123.572 167.47ZM123.595 167.339L124.295 167.388L122.906 167.216L123.595 167.339ZM123.565 167.781L123.513 168.479L124.215 168.531L124.264 167.83L123.565 167.781ZM123.518 167.777L122.828 167.657L122.695 168.42L123.467 168.477L123.518 167.777ZM123.567 167.495L124.258 167.616L124.396 166.826L123.595 166.795L123.567 167.495ZM123.514 167.493L122.814 167.458L122.779 168.166L123.488 168.193L123.514 167.493ZM123.533 167.107L124.233 167.142L124.25 166.806L123.999 166.583L123.533 167.107ZM123.527 167.101L123.993 166.578L123.635 166.26L123.208 166.478L123.527 167.101ZM123.438 167.148L123.118 166.524L122.737 166.719V167.148H123.438ZM123.438 167.189L123.326 167.882L124.139 168.013V167.189H123.438ZM123.391 167.182L123.503 166.49L123.389 166.471L123.276 166.49L123.391 167.182ZM123.346 167.189L122.645 167.201L122.658 168.015L123.461 167.881L123.346 167.189ZM123.345 167.148L124.046 167.136L124.039 166.718L123.668 166.525L123.345 167.148ZM123.256 167.101L123.579 166.479L123.145 166.254L122.784 166.583L123.256 167.101ZM123.248 167.108L122.777 166.589L122.53 166.813L122.548 167.146L123.248 167.108ZM123.27 167.493L123.295 168.193L124.008 168.167L123.969 167.455L123.27 167.493ZM123.214 167.495L123.188 166.795L122.384 166.825L122.524 167.617L123.214 167.495ZM123.265 167.777L123.316 168.477L124.09 168.419L123.954 167.655L123.265 167.777ZM123.218 167.781L122.519 167.83L122.568 168.531L123.27 168.479L123.218 167.781ZM123.187 167.339L123.878 167.22L122.488 167.388L123.187 167.339ZM123.21 167.47L122.519 167.589L123.908 167.526L123.21 167.47ZM123.227 167.256L123.926 167.312L124.027 166.037L122.898 166.637L123.227 167.256ZM123.183 167.279L122.484 167.331L122.564 168.402L123.512 167.898L123.183 167.279ZM123.176 167.178L123.874 167.126L123.763 165.629L122.687 166.675L123.176 167.178ZM123.151 167.202L122.585 166.789L123.64 167.704L123.151 167.202ZM123.175 167.169L123.741 167.582L123.891 167.376L123.874 167.122L123.175 167.169ZM123.167 167.057L123.867 167.01L123.84 166.614L123.486 166.433L123.167 167.057ZM122.836 166.888L123.156 166.263L123.094 166.232L123.028 166.213L122.836 166.888ZM121.275 166.443L121.466 165.769L121.413 165.754L121.359 165.747L121.275 166.443ZM53.8815 158.286L53.1892 158.397L53.272 158.919L53.7973 158.983L53.8815 158.286ZM52.5706 150.013L52.7317 149.33L51.7148 149.09L51.8784 150.122L52.5706 150.013ZM116.848 165.184L116.688 165.866L117.04 164.51L116.848 165.184ZM66.2423 150.795L65.5423 150.831L65.5685 151.332L66.0506 151.469L66.2423 150.795ZM65.8036 142.429L66.0794 141.784L65.0446 141.341L65.1035 142.466L65.8036 142.429ZM121.508 166.284L121.232 166.929L121.288 166.953L121.347 166.967L121.508 166.284ZM121.789 166.351L121.628 167.033L122.109 165.727L121.789 166.351ZM80.1859 145.038L79.4864 144.989L79.4541 145.451L79.8663 145.662L80.1859 145.038ZM80.7705 136.682L81.1777 136.112L80.1586 135.383L80.0709 136.633L80.7705 136.682ZM122.476 166.513L122.068 167.083L122.18 167.163L122.315 167.195L122.476 166.513ZM123.052 166.649L122.891 167.331L125.405 167.925L123.536 166.141L123.052 166.649ZM95.7557 140.605L95.0751 140.435L94.977 140.83L95.2714 141.111L95.7557 140.605ZM97.7815 132.477L98.3436 132.058L97.4597 130.87L97.1016 132.307L97.7815 132.477ZM123.214 166.641L122.652 167.059L123.654 168.405L123.907 166.747L123.214 166.641ZM123.222 166.592L123.922 166.561L122.529 166.486L123.222 166.592ZM123.225 166.655L122.524 166.685L122.534 166.901L122.663 167.074L123.225 166.655ZM123.345 166.816L122.783 167.235L124.046 168.929V166.816H123.345ZM123.345 166.72L124.038 166.614L122.644 166.72H123.345ZM123.363 166.841L122.671 166.947L122.697 167.119L122.801 167.258L123.363 166.841ZM123.391 166.878L122.828 167.295L123.387 168.05L123.952 167.298L123.391 166.878ZM123.417 166.842L123.978 167.263L124.082 167.125L124.109 166.955L123.417 166.842ZM123.438 166.72H124.139L122.746 166.608L123.438 166.72ZM123.438 166.816H122.737V168.936L124.001 167.234L123.438 166.816ZM123.558 166.654L124.12 167.072L124.247 166.903L124.258 166.693L123.558 166.654ZM123.562 166.592L124.257 166.504L122.862 166.553L123.562 166.592ZM123.567 166.64L122.872 166.729L123.091 168.454L124.13 167.059L123.567 166.64ZM149.001 132.477L149.681 132.307L149.323 130.871L148.439 132.058L149.001 132.477ZM123.052 167.296L123.538 167.802L123.871 167.481L123.708 167.05L123.052 167.296ZM123.017 167.331L122.337 167.501L122.631 168.674L123.502 167.835L123.017 167.331ZM122.92 166.943L123.576 166.696L122.24 167.113L122.92 166.943ZM123.766 167.331L123.286 167.84L124.158 168.662L124.447 167.5L123.766 167.331ZM123.731 167.296L123.075 167.05L122.911 167.486L123.25 167.806L123.731 167.296ZM123.863 166.943L124.544 167.113L123.207 166.696L123.863 166.943ZM123.213 167.141L122.726 166.638L122.442 166.913L122.531 167.298L123.213 167.141ZM123.23 167.214L122.547 167.369L123.929 167.264L123.23 167.214ZM123.237 167.119L123.936 167.169L124.069 165.334L122.749 166.616L123.237 167.119ZM123.553 167.214L122.855 167.274L124.238 167.362L123.553 167.214ZM123.568 167.141L124.254 167.289L124.337 166.902L124.049 166.631L123.568 167.141ZM123.544 167.118L124.025 166.608L122.688 165.347L122.846 167.179L123.544 167.118ZM123.274 167.083L122.794 166.573L122.175 167.155L122.864 167.652L123.274 167.083ZM123.345 167.134L122.935 167.703L124.046 168.504V167.134H123.345ZM123.345 167.016H124.046V165.393L122.864 166.506L123.345 167.016ZM123.438 167.134H122.737V168.512L123.85 167.701L123.438 167.134ZM123.508 167.083L123.921 167.65L124.601 167.155L123.992 166.576L123.508 167.083ZM123.438 167.016L123.921 166.508L122.737 165.382V167.016H123.438ZM123.209 167.122L122.524 167.272L122.853 168.773L123.771 167.541L123.209 167.122ZM123.233 167.09L123.795 167.509L124.291 166.843L123.551 166.466L123.233 167.09ZM123.198 167.072L123.516 166.448L122.196 165.775L122.513 167.223L123.198 167.072ZM123.549 167.09L123.235 166.463L122.487 166.837L122.986 167.509L123.549 167.09ZM123.572 167.122L123.01 167.541L123.912 168.753L124.255 167.282L123.572 167.122ZM123.584 167.072L124.267 167.231L124.605 165.778L123.271 166.445L123.584 167.072ZM123.438 166.928L122.953 166.422L122.737 166.628V166.928H123.438ZM123.438 166.94H122.737V167.172L122.874 167.357L123.438 166.94ZM123.532 167.067L122.968 167.484L123.339 167.985L123.879 167.675L123.532 167.067ZM123.536 167.064L123.884 167.673L124.213 167.485L124.236 167.106L123.536 167.064ZM123.538 167.03L124.238 166.984L122.838 166.988L123.538 167.03ZM123.54 167.061L122.841 167.107L122.923 168.374L123.952 167.629L123.54 167.061ZM123.595 167.022L124.006 167.589L124.221 167.433L124.28 167.174L123.595 167.022ZM123.603 166.984L124.287 167.136L124.544 165.981L123.408 166.311L123.603 166.984ZM123.539 167.003L122.84 166.966L122.788 167.951L123.735 167.676L123.539 167.003ZM123.549 166.821L124.249 166.858L124.342 165.092L123.065 166.315L123.549 166.821ZM123.243 167.003L123.049 167.677L123.995 167.948L123.943 166.966L123.243 167.003ZM123.179 166.984L123.373 166.311L122.234 165.984L122.495 167.139L123.179 166.984ZM123.187 167.021L122.503 167.176L122.562 167.434L122.775 167.589L123.187 167.021ZM123.242 167.061L122.83 167.628L123.83 168.353L123.94 167.122L123.242 167.061ZM123.244 167.03L123.945 167.001L122.546 166.968L123.244 167.03ZM123.246 167.064L122.545 167.092L122.559 167.434L122.838 167.633L123.246 167.064ZM123.251 167.067L122.843 167.637L123.402 168.036L123.813 167.486L123.251 167.067ZM123.345 166.94L123.907 167.359L124.046 167.173V166.94H123.345ZM123.345 166.928H124.046V166.627L123.828 166.42L123.345 166.928ZM123.234 166.822L123.717 166.314L122.441 165.1L122.534 166.859L123.234 166.822ZM123.386 166.977L122.858 166.515L122.642 166.762L122.693 167.086L123.386 166.977ZM123.391 167.012L122.698 167.12L124.085 167.106L123.391 167.012ZM123.396 166.977L124.09 167.07L124.141 166.697L123.858 166.449L123.396 166.977ZM123.39 166.972L123.852 166.444L123.324 165.983L122.863 166.51L123.39 166.972ZM123.163 167.005L122.755 167.575L123.959 168.435L123.863 166.959L123.163 167.005ZM123.155 166.878L123.839 166.729L122.456 166.923L123.155 166.878ZM123.171 166.954L122.487 167.103L123.866 167.049L123.171 166.954ZM123.195 166.784L123.889 166.88L123.938 166.525L123.678 166.276L123.195 166.784ZM123.064 166.66L123.547 166.152L123.379 165.991L123.148 165.964L123.064 166.66ZM122.603 166.604L122.687 165.908L122.196 167.174L122.603 166.604ZM123.718 166.66L123.633 165.964L123.403 165.992L123.234 166.152L123.718 166.66ZM123.588 166.784L123.104 166.276L122.844 166.525L122.893 166.88L123.588 166.784ZM123.611 166.954L122.916 167.049L124.294 167.108L123.611 166.954ZM123.628 166.878L124.327 166.927L122.944 166.722L123.628 166.878ZM123.619 167.005L122.92 166.956L122.815 168.442L124.027 167.575L123.619 167.005ZM124.179 166.604L124.587 167.174L124.095 165.908L124.179 166.604ZM123.341 166.693L123.258 167.39L124.179 167.5L124.034 166.584L123.341 166.693ZM123.25 166.683L122.55 166.635L122.506 167.299L123.166 167.379L123.25 166.683ZM123.277 166.287L123.969 166.178L122.578 166.24L123.277 166.287ZM123.533 166.683L123.616 167.379L124.277 167.299L124.232 166.635L123.533 166.683ZM123.442 166.693L122.749 166.584L122.604 167.5L123.525 167.39L123.442 166.693ZM123.506 166.287L124.205 166.24L122.814 166.178L123.506 166.287ZM122.435 166.682L122.159 167.326L122.754 166.058L122.435 166.682ZM122.185 166.553L122.505 165.929L122.393 165.873L122.269 165.857L122.185 166.553ZM122.116 166.545L122.2 165.85L121.841 167.19L122.116 166.545ZM124.599 166.553L124.519 165.857L124.392 165.871L124.278 165.929L124.599 166.553ZM124.356 166.677L124.036 166.054L124.632 167.322L124.356 166.677ZM124.665 166.545L124.941 167.19L124.586 165.849L124.665 166.545ZM123.172 167.812L123.005 167.132L122.972 167.14L123.138 167.821L123.305 168.501L123.339 168.493L123.172 167.812ZM123.138 167.821L123.818 167.651L123.714 167.23L123.034 167.4L122.353 167.57L122.459 167.99L123.138 167.821ZM123.034 167.4L122.37 167.623L122.508 168.035L123.172 167.812L123.837 167.589L123.699 167.177L123.034 167.4ZM123.645 167.821L123.814 167.141L123.781 167.132L123.612 167.812L123.441 168.492L123.474 168.5L123.645 167.821ZM123.612 167.812L124.276 168.034L124.414 167.622L123.749 167.4L123.084 167.179L122.946 167.59L123.612 167.812ZM123.749 167.4L123.069 167.23L122.964 167.651L123.645 167.821L124.324 167.99L124.429 167.57L123.749 167.4ZM151.028 140.605L150.544 140.097L123.245 166.142L123.729 166.649L124.213 167.156L151.512 141.111L151.028 140.605ZM123.729 166.649L123.891 167.331L124.469 167.195L124.308 166.513L124.146 165.831L123.567 165.967L123.729 166.649ZM124.308 166.513L124.716 167.083L166.42 137.252L166.013 136.682L165.605 136.112L123.9 165.942L124.308 166.513ZM166.013 136.682L165.313 136.731L165.898 145.087L166.597 145.038L167.297 144.989L166.712 136.633L166.013 136.682ZM166.597 145.038L166.277 144.414L124.676 165.726L124.995 166.35L125.314 166.974L166.917 145.662L166.597 145.038ZM124.995 166.35L125.156 167.032L125.434 166.967L125.274 166.284L125.112 165.602L124.834 165.668L124.995 166.35ZM125.274 166.284L125.55 166.929L181.255 143.073L180.98 142.429L180.703 141.784L124.997 165.64L125.274 166.284ZM180.98 142.429L180.279 142.392L179.841 150.758L180.541 150.795L181.24 150.831L181.679 142.466L180.98 142.429ZM180.541 150.795L180.349 150.121L129.739 164.511L129.931 165.185L130.123 165.859L180.732 151.469L180.541 150.795ZM129.931 165.185L130.092 165.867L194.373 150.695L194.212 150.013L194.051 149.33L129.77 164.503L129.931 165.185ZM194.212 150.013L193.52 149.903L192.21 158.177L192.902 158.286L193.594 158.397L194.904 150.122L194.212 150.013ZM192.902 158.286L192.818 157.591L125.423 165.747L125.507 166.443L125.591 167.139L192.986 158.983L192.902 158.286ZM125.507 166.443L125.315 165.769L123.755 166.213L123.947 166.887L124.139 167.561L125.698 167.118L125.507 166.443ZM123.947 166.887L123.629 166.262L123.297 166.431L123.615 167.056L123.933 167.68L124.265 167.511L123.947 166.887ZM123.615 167.056L122.916 167.005L122.908 167.117L123.607 167.168L124.306 167.219L124.314 167.107L123.615 167.056ZM123.607 167.168L123.047 167.591L123.073 167.624L123.632 167.202L124.191 166.779L124.166 166.746L123.607 167.168ZM123.632 167.202L124.12 166.699L124.095 166.675L123.607 167.177L123.118 167.68L123.143 167.704L123.632 167.202ZM123.607 167.177L122.907 167.13L122.9 167.232L123.6 167.279L124.299 167.326L124.306 167.224L123.607 167.177ZM123.6 167.279L123.925 166.658L123.88 166.635L123.556 167.256L123.23 167.877L123.275 167.9L123.6 167.279ZM123.556 167.256L122.857 167.312L122.874 167.526L123.572 167.47L124.271 167.414L124.254 167.2L123.556 167.256ZM123.572 167.47L124.263 167.593L124.286 167.462L123.595 167.339L122.906 167.216L122.883 167.347L123.572 167.47ZM123.595 167.339L122.897 167.291L122.866 167.732L123.565 167.781L124.264 167.83L124.295 167.388L123.595 167.339ZM123.565 167.781L123.616 167.082L123.57 167.078L123.518 167.777L123.467 168.477L123.513 168.479L123.565 167.781ZM123.518 167.777L124.209 167.898L124.258 167.616L123.567 167.495L122.877 167.375L122.828 167.657L123.518 167.777ZM123.567 167.495L123.595 166.795L123.541 166.793L123.514 167.493L123.488 168.193L123.541 168.196L123.567 167.495ZM123.514 167.493L124.214 167.528L124.233 167.142L123.533 167.107L122.834 167.073L122.814 167.458L123.514 167.493ZM123.533 167.107L123.999 166.583L123.993 166.578L123.527 167.101L123.061 167.626L123.068 167.631L123.533 167.107ZM123.527 167.101L123.208 166.478L123.118 166.524L123.438 167.148L123.757 167.772L123.846 167.726L123.527 167.101ZM123.438 167.148H122.737V167.189H123.438H124.139V167.148H123.438ZM123.438 167.189L123.549 166.497L123.503 166.49L123.391 167.182L123.279 167.874L123.326 167.882L123.438 167.189ZM123.391 167.182L123.276 166.49L123.231 166.498L123.346 167.189L123.461 167.881L123.506 167.873L123.391 167.182ZM123.346 167.189L124.047 167.178L124.046 167.136L123.345 167.148L122.644 167.159L122.645 167.201L123.346 167.189ZM123.345 167.148L123.668 166.525L123.579 166.479L123.256 167.101L122.932 167.723L123.022 167.769L123.345 167.148ZM123.256 167.101L122.784 166.583L122.777 166.589L123.248 167.108L123.72 167.626L123.727 167.619L123.256 167.101ZM123.248 167.108L122.548 167.146L122.569 167.532L123.27 167.493L123.969 167.455L123.948 167.069L123.248 167.108ZM123.27 167.493L123.243 166.793L123.188 166.795L123.214 167.495L123.241 168.196L123.295 168.193L123.27 167.493ZM123.214 167.495L122.524 167.617L122.574 167.9L123.265 167.777L123.954 167.655L123.905 167.373L123.214 167.495ZM123.265 167.777L123.213 167.078L123.166 167.082L123.218 167.781L123.27 168.479L123.316 168.477L123.265 167.777ZM123.218 167.781L123.917 167.732L123.886 167.291L123.187 167.339L122.488 167.388L122.519 167.83L123.218 167.781ZM123.187 167.339L122.496 167.459L122.519 167.589L123.21 167.47L123.9 167.351L123.878 167.22L123.187 167.339ZM123.21 167.47L123.908 167.526L123.926 167.312L123.227 167.256L122.528 167.2L122.511 167.414L123.21 167.47ZM123.227 167.256L122.898 166.637L122.854 166.66L123.183 167.279L123.512 167.898L123.556 167.875L123.227 167.256ZM123.183 167.279L123.882 167.227L123.874 167.126L123.176 167.178L122.476 167.23L122.484 167.331L123.183 167.279ZM123.176 167.178L122.687 166.675L122.663 166.699L123.151 167.202L123.64 167.704L123.664 167.68L123.176 167.178ZM123.151 167.202L123.717 167.615L123.741 167.582L123.175 167.169L122.609 166.756L122.585 166.789L123.151 167.202ZM123.175 167.169L123.874 167.122L123.867 167.01L123.167 167.057L122.468 167.104L122.475 167.216L123.175 167.169ZM123.167 167.057L123.486 166.433L123.156 166.263L122.836 166.888L122.517 167.511L122.848 167.68L123.167 167.057ZM122.836 166.888L123.028 166.213L121.466 165.769L121.275 166.443L121.083 167.118L122.645 167.562L122.836 166.888ZM121.275 166.443L121.359 165.747L53.9657 157.591L53.8815 158.286L53.7973 158.983L121.191 167.139L121.275 166.443ZM53.8815 158.286L54.5737 158.177L53.2629 149.903L52.5706 150.013L51.8784 150.122L53.1892 158.397L53.8815 158.286ZM52.5706 150.013L52.4096 150.695L116.688 165.866L116.848 165.184L117.009 164.502L52.7317 149.33L52.5706 150.013ZM116.848 165.184L117.04 164.51L66.434 150.121L66.2423 150.795L66.0506 151.469L116.657 165.859L116.848 165.184ZM66.2423 150.795L66.9423 150.758L66.5035 142.392L65.8036 142.429L65.1035 142.466L65.5423 150.831L66.2423 150.795ZM65.8036 142.429L65.5276 143.073L121.232 166.929L121.508 166.284L121.784 165.64L66.0794 141.784L65.8036 142.429ZM121.508 166.284L121.347 166.967L121.628 167.033L121.789 166.351L121.95 165.669L121.669 165.602L121.508 166.284ZM121.789 166.351L122.109 165.727L80.5055 144.414L80.1859 145.038L79.8663 145.662L121.47 166.975L121.789 166.351ZM80.1859 145.038L80.8847 145.087L81.4693 136.731L80.7705 136.682L80.0709 136.633L79.4864 144.989L80.1859 145.038ZM80.7705 136.682L80.3625 137.252L122.068 167.083L122.476 166.513L122.883 165.942L81.1777 136.112L80.7705 136.682ZM122.476 166.513L122.315 167.195L122.891 167.331L123.052 166.649L123.213 165.967L122.637 165.83L122.476 166.513ZM123.052 166.649L123.536 166.141L96.2394 140.097L95.7557 140.605L95.2714 141.111L122.569 167.155L123.052 166.649ZM95.7557 140.605L96.4357 140.774L98.4621 132.646L97.7815 132.477L97.1016 132.307L95.0751 140.435L95.7557 140.605ZM97.7815 132.477L97.2193 132.895L122.652 167.059L123.214 166.641L123.777 166.222L98.3436 132.058L97.7815 132.477ZM123.214 166.641L123.907 166.747L123.915 166.698L123.222 166.592L122.529 166.486L122.522 166.535L123.214 166.641ZM123.222 166.592L122.522 166.622L122.524 166.685L123.225 166.655L123.925 166.624L123.922 166.561L123.222 166.592ZM123.225 166.655L122.663 167.074L122.783 167.235L123.345 166.816L123.907 166.397L123.787 166.236L123.225 166.655ZM123.345 166.816H124.046V166.72H123.345H122.644V166.816H123.345ZM123.345 166.72L122.652 166.827L122.671 166.947L123.363 166.841L124.057 166.735L124.038 166.614L123.345 166.72ZM123.363 166.841L122.801 167.258L122.828 167.295L123.391 166.878L123.954 166.461L123.927 166.424L123.363 166.841ZM123.391 166.878L123.952 167.298L123.978 167.263L123.417 166.842L122.857 166.422L122.83 166.457L123.391 166.878ZM123.417 166.842L124.109 166.955L124.13 166.833L123.438 166.72L122.746 166.608L122.726 166.73L123.417 166.842ZM123.438 166.72H122.737V166.816H123.438H124.139V166.72H123.438ZM123.438 166.816L124.001 167.234L124.12 167.072L123.558 166.654L122.995 166.236L122.875 166.398L123.438 166.816ZM123.558 166.654L124.258 166.693L124.261 166.63L123.562 166.592L122.862 166.553L122.858 166.616L123.558 166.654ZM123.562 166.592L122.866 166.68L122.872 166.729L123.567 166.64L124.263 166.552L124.257 166.504L123.562 166.592ZM123.567 166.64L124.13 167.059L149.564 132.895L149.001 132.477L148.439 132.058L123.005 166.222L123.567 166.64ZM149.001 132.477L148.321 132.646L150.348 140.774L151.028 140.605L151.708 140.435L149.681 132.307L149.001 132.477ZM123.052 167.296L122.566 166.791L122.531 166.825L123.017 167.331L123.502 167.835L123.538 167.802L123.052 167.296ZM123.017 167.331L123.696 167.16L123.599 166.773L122.92 166.943L122.24 167.113L122.337 167.501L123.017 167.331ZM122.92 166.943L122.263 167.19L122.396 167.543L123.052 167.296L123.708 167.05L123.576 166.696L122.92 166.943ZM123.766 167.331L124.248 166.82L124.212 166.786L123.731 167.296L123.25 167.806L123.286 167.84L123.766 167.331ZM123.731 167.296L124.387 167.543L124.519 167.19L123.863 166.943L123.207 166.696L123.075 167.05L123.731 167.296ZM123.863 166.943L123.183 166.773L123.087 167.161L123.766 167.331L124.447 167.5L124.544 167.113L123.863 166.943ZM123.213 167.141L122.531 167.298L122.547 167.369L123.23 167.214L123.914 167.057L123.897 166.985L123.213 167.141ZM123.23 167.214L123.929 167.264L123.936 167.169L123.237 167.119L122.538 167.068L122.531 167.162L123.23 167.214ZM123.237 167.119L122.749 166.616L122.726 166.638L123.213 167.141L123.702 167.645L123.725 167.622L123.237 167.119ZM123.553 167.214L124.238 167.362L124.254 167.289L123.568 167.141L122.883 166.992L122.868 167.065L123.553 167.214ZM123.568 167.141L124.049 166.631L124.025 166.608L123.544 167.118L123.063 167.628L123.087 167.651L123.568 167.141ZM123.544 167.118L122.846 167.179L122.855 167.274L123.553 167.214L124.251 167.153L124.242 167.058L123.544 167.118ZM123.274 167.083L122.864 167.652L122.935 167.703L123.345 167.134L123.755 166.566L123.684 166.515L123.274 167.083ZM123.345 167.134H124.046V167.016H123.345H122.644V167.134H123.345ZM123.345 167.016L122.864 166.506L122.794 166.573L123.274 167.083L123.755 167.593L123.826 167.526L123.345 167.016ZM123.438 167.134L123.85 167.701L123.921 167.65L123.508 167.083L123.096 166.517L123.025 166.568L123.438 167.134ZM123.508 167.083L123.992 166.576L123.921 166.508L123.438 167.016L122.954 167.524L123.025 167.591L123.508 167.083ZM123.438 167.016H122.737V167.134H123.438H124.139V167.016H123.438ZM123.209 167.122L123.771 167.541L123.795 167.509L123.233 167.09L122.671 166.672L122.647 166.703L123.209 167.122ZM123.233 167.09L123.551 166.466L123.516 166.448L123.198 167.072L122.88 167.697L122.915 167.715L123.233 167.09ZM123.198 167.072L122.513 167.223L122.524 167.272L123.209 167.122L123.893 166.972L123.883 166.922L123.198 167.072ZM123.549 167.09L122.986 167.509L123.01 167.541L123.572 167.122L124.134 166.703L124.111 166.672L123.549 167.09ZM123.572 167.122L124.255 167.282L124.267 167.231L123.584 167.072L122.902 166.914L122.89 166.963L123.572 167.122ZM123.584 167.072L123.271 166.445L123.235 166.463L123.549 167.09L123.862 167.717L123.898 167.699L123.584 167.072ZM123.438 166.928H122.737V166.94H123.438H124.139V166.928H123.438ZM123.438 166.94L122.874 167.357L122.968 167.484L123.532 167.067L124.095 166.65L124.001 166.523L123.438 166.94ZM123.532 167.067L123.879 167.675L123.884 167.673L123.536 167.064L123.188 166.455L123.183 166.458L123.532 167.067ZM123.536 167.064L124.236 167.106L124.238 167.072L123.538 167.03L122.838 166.988L122.836 167.022L123.536 167.064ZM123.538 167.03L122.838 167.075L122.841 167.107L123.54 167.061L124.24 167.016L124.238 166.984L123.538 167.03ZM123.54 167.061L123.952 167.629L124.006 167.589L123.595 167.022L123.183 166.454L123.129 166.494L123.54 167.061ZM123.595 167.022L124.28 167.174L124.287 167.136L123.603 166.984L122.919 166.833L122.911 166.869L123.595 167.022ZM123.603 166.984L123.408 166.311L123.344 166.33L123.539 167.003L123.735 167.676L123.799 167.658L123.603 166.984ZM123.539 167.003L124.24 167.04L124.249 166.858L123.549 166.821L122.849 166.784L122.84 166.966L123.539 167.003ZM123.549 166.821L123.065 166.315L122.953 166.422L123.438 166.928L123.922 167.434L124.034 167.327L123.549 166.821ZM123.243 167.003L123.436 166.33L123.373 166.311L123.179 166.984L122.986 167.659L123.049 167.677L123.243 167.003ZM123.179 166.984L122.495 167.139L122.503 167.176L123.187 167.021L123.871 166.866L123.863 166.83L123.179 166.984ZM123.187 167.021L122.775 167.589L122.83 167.628L123.242 167.061L123.653 166.493L123.598 166.454L123.187 167.021ZM123.242 167.061L123.94 167.122L123.942 167.092L123.244 167.03L122.546 166.968L122.543 166.998L123.242 167.061ZM123.244 167.03L122.544 167.059L122.545 167.092L123.246 167.064L123.946 167.035L123.945 167.001L123.244 167.03ZM123.246 167.064L122.838 167.633L122.843 167.637L123.251 167.067L123.658 166.497L123.654 166.493L123.246 167.064ZM123.251 167.067L123.813 167.486L123.907 167.359L123.345 166.94L122.783 166.521L122.689 166.648L123.251 167.067ZM123.345 166.94H124.046V166.928H123.345H122.644V166.94H123.345ZM123.345 166.928L123.828 166.42L123.717 166.314L123.234 166.822L122.751 167.33L122.862 167.436L123.345 166.928ZM123.234 166.822L122.534 166.859L122.543 167.04L123.243 167.003L123.943 166.966L123.933 166.785L123.234 166.822ZM123.386 166.977L122.693 167.086L122.698 167.12L123.391 167.012L124.083 166.904L124.078 166.869L123.386 166.977ZM123.391 167.012L124.085 167.106L124.09 167.07L123.396 166.977L122.701 166.883L122.696 166.918L123.391 167.012ZM123.396 166.977L123.858 166.449L123.852 166.444L123.39 166.972L122.929 167.499L122.934 167.504L123.396 166.977ZM123.39 166.972L122.863 166.51L122.858 166.515L123.386 166.977L123.913 167.439L123.918 167.433L123.39 166.972ZM123.163 167.005L123.863 166.959L123.854 166.832L123.155 166.878L122.456 166.923L122.463 167.05L123.163 167.005ZM123.155 166.878L122.47 167.027L122.487 167.103L123.171 166.954L123.856 166.804L123.839 166.729L123.155 166.878ZM123.171 166.954L123.866 167.049L123.889 166.88L123.195 166.784L122.5 166.689L122.477 166.858L123.171 166.954ZM123.195 166.784L123.678 166.276L123.547 166.152L123.064 166.66L122.581 167.167L122.711 167.291L123.195 166.784ZM123.064 166.66L123.148 165.964L122.687 165.908L122.603 166.604L122.52 167.3L122.98 167.355L123.064 166.66ZM122.603 166.604L122.196 167.174L122.755 167.575L123.163 167.005L123.571 166.434L123.011 166.034L122.603 166.604ZM123.718 166.66L123.234 166.152L123.104 166.276L123.588 166.784L124.071 167.291L124.202 167.167L123.718 166.66ZM123.588 166.784L122.893 166.88L122.916 167.049L123.611 166.954L124.305 166.858L124.282 166.689L123.588 166.784ZM123.611 166.954L124.294 167.108L124.311 167.033L123.628 166.878L122.944 166.722L122.927 166.798L123.611 166.954ZM123.628 166.878L122.929 166.829L122.92 166.956L123.619 167.005L124.318 167.054L124.327 166.927L123.628 166.878ZM123.619 167.005L124.027 167.575L124.587 167.174L124.179 166.604L123.771 166.033L123.211 166.435L123.619 167.005ZM124.179 166.604L124.095 165.908L123.633 165.964L123.718 166.66L123.803 167.355L124.264 167.299L124.179 166.604ZM123.341 166.693L123.425 165.998L123.334 165.987L123.25 166.683L123.166 167.379L123.258 167.39L123.341 166.693ZM123.25 166.683L123.949 166.73L123.976 166.335L123.277 166.287L122.578 166.24L122.55 166.635L123.25 166.683ZM123.277 166.287L122.585 166.397L122.649 166.804L123.341 166.693L124.034 166.584L123.969 166.178L123.277 166.287ZM123.533 166.683L123.449 165.987L123.358 165.998L123.442 166.693L123.525 167.39L123.616 167.379L123.533 166.683ZM123.442 166.693L124.134 166.804L124.198 166.397L123.506 166.287L122.814 166.178L122.749 166.584L123.442 166.693ZM123.506 166.287L122.807 166.335L122.834 166.73L123.533 166.683L124.232 166.635L124.205 166.24L123.506 166.287ZM122.435 166.682L122.754 166.058L122.505 165.929L122.185 166.553L121.866 167.177L122.115 167.305L122.435 166.682ZM122.185 166.553L122.269 165.857L122.2 165.85L122.116 166.545L122.033 167.241L122.102 167.249L122.185 166.553ZM122.116 166.545L121.841 167.19L122.159 167.326L122.435 166.682L122.711 166.037L122.392 165.901L122.116 166.545ZM124.599 166.553L124.278 165.929L124.036 166.054L124.356 166.677L124.677 167.301L124.919 167.176L124.599 166.553ZM124.356 166.677L124.632 167.322L124.941 167.19L124.665 166.545L124.389 165.901L124.081 166.033L124.356 166.677ZM124.665 166.545L124.586 165.849L124.519 165.857L124.599 166.553L124.678 167.249L124.744 167.242L124.665 166.545Z" fill="black" fill-opacity="0.6" />
  </g>
  <path d="M149.191 191.723C150.462 191.611 151.556 191.733 152.474 192.089C153.391 192.431 154.113 192.973 154.642 193.715C155.17 194.443 155.481 195.337 155.574 196.398C155.629 197.027 155.587 197.671 155.447 198.33C155.321 198.975 155.071 199.574 154.697 200.127C154.337 200.679 153.822 201.147 153.152 201.529C152.495 201.896 151.663 202.124 150.658 202.211L148.479 202.402L148.906 207.283L145.868 207.549L144.52 192.131L149.191 191.723ZM150.378 199.26C150.839 199.219 151.216 199.109 151.51 198.928C151.803 198.734 152.022 198.51 152.17 198.259C152.329 197.991 152.432 197.722 152.479 197.451C152.539 197.178 152.561 196.944 152.544 196.748C152.531 196.595 152.484 196.394 152.406 196.148C152.341 195.886 152.221 195.63 152.044 195.378C151.867 195.126 151.61 194.923 151.273 194.769C150.95 194.615 150.523 194.561 149.992 194.608L147.814 194.798L148.22 199.448L150.378 199.26ZM162.581 206.34C161.729 206.414 160.939 206.315 160.211 206.041C159.496 205.751 158.906 205.268 158.438 204.592C157.971 203.915 157.689 203.024 157.593 201.921C157.502 200.888 157.633 199.976 157.987 199.185C158.339 198.394 158.84 197.767 159.489 197.301C160.136 196.823 160.844 196.55 161.613 196.483C162.52 196.403 163.218 196.497 163.706 196.764C164.207 197.015 164.626 197.31 164.965 197.645L164.87 198.013L165.025 196.648L167.749 196.41L168.55 205.565L165.617 205.821L165.443 203.83L165.728 204.439C165.7 204.442 165.624 204.533 165.499 204.712C165.373 204.878 165.18 205.085 164.92 205.333C164.673 205.566 164.354 205.776 163.962 205.966C163.586 206.167 163.125 206.292 162.581 206.34ZM163.21 203.878C163.559 203.848 163.869 203.772 164.139 203.65C164.409 203.513 164.64 203.338 164.833 203.125C165.023 202.897 165.182 202.622 165.309 202.302L165.113 200.06C164.974 199.763 164.784 199.519 164.542 199.329C164.299 199.125 164.02 198.981 163.703 198.896C163.384 198.797 163.037 198.764 162.66 198.797C162.241 198.834 161.859 198.98 161.516 199.235C161.185 199.475 160.931 199.793 160.755 200.188C160.579 200.584 160.511 201.025 160.554 201.515C160.597 202.003 160.747 202.434 161.005 202.805C161.263 203.176 161.582 203.458 161.965 203.65C162.362 203.84 162.777 203.916 163.21 203.878ZM176.709 209.494C175.885 209.566 175.178 209.53 174.589 209.384C174.013 209.237 173.517 209.042 173.102 208.797C172.687 208.551 172.314 208.316 171.985 208.092L173.526 205.931C173.873 206.196 174.268 206.443 174.71 206.672C175.168 206.913 175.745 207.004 176.444 206.942C176.905 206.902 177.323 206.781 177.7 206.579C178.091 206.39 178.392 206.132 178.602 205.804C178.827 205.474 178.919 205.08 178.879 204.618L178.703 202.607L178.853 203.122C178.672 203.616 178.303 204.071 177.749 204.485C177.192 204.885 176.439 205.127 175.49 205.211C174.666 205.283 173.88 205.141 173.131 204.784C172.394 204.412 171.785 203.881 171.303 203.191C170.819 202.488 170.536 201.668 170.454 200.732C170.37 199.769 170.519 198.897 170.901 198.119C171.282 197.325 171.81 196.681 172.484 196.185C173.158 195.691 173.894 195.408 174.69 195.339C175.485 195.269 176.18 195.327 176.774 195.515C177.38 195.687 177.844 195.928 178.166 196.237L178.086 196.519L178.312 195.486L181.014 195.25L181.816 204.404C181.893 205.298 181.711 206.109 181.268 206.837C180.827 207.579 180.204 208.183 179.4 208.647C178.612 209.124 177.714 209.406 176.709 209.494ZM173.401 200.39C173.444 200.88 173.594 201.309 173.852 201.681C174.109 202.052 174.436 202.333 174.833 202.524C175.244 202.713 175.686 202.787 176.161 202.745C176.566 202.71 176.917 202.63 177.217 202.505C177.528 202.366 177.794 202.187 178.014 201.971C178.247 201.74 178.434 201.463 178.574 201.141L178.379 198.899C178.226 198.604 178.015 198.362 177.745 198.174C177.474 197.973 177.166 197.83 176.821 197.748C176.489 197.65 176.12 197.619 175.715 197.655C175.241 197.697 174.817 197.846 174.446 198.104C174.087 198.346 173.813 198.666 173.622 199.063C173.432 199.459 173.358 199.902 173.401 200.39ZM189.353 203.997C188.236 204.095 187.268 203.969 186.449 203.618C185.645 203.266 185.008 202.738 184.538 202.033C184.068 201.329 183.792 200.495 183.707 199.531C183.626 198.609 183.791 197.758 184.201 196.976C184.611 196.194 185.195 195.552 185.953 195.049C186.71 194.533 187.577 194.232 188.555 194.146C189.868 194.031 190.977 194.322 191.882 195.016C192.8 195.696 193.448 196.744 193.825 198.161L186.9 201.046L186.112 199.511L191.113 197.321L190.529 197.647C190.385 197.294 190.155 196.997 189.839 196.757C189.535 196.502 189.097 196.4 188.524 196.45C188.092 196.487 187.717 196.626 187.4 196.865C187.096 197.088 186.869 197.397 186.721 197.79C186.585 198.168 186.539 198.608 186.583 199.11C186.633 199.683 186.78 200.155 187.024 200.528C187.266 200.887 187.577 201.149 187.958 201.312C188.338 201.476 188.751 201.538 189.199 201.499C189.52 201.471 189.822 201.388 190.106 201.251C190.403 201.112 190.69 200.939 190.968 200.732L192.457 202.797C191.992 203.119 191.481 203.389 190.924 203.607C190.38 203.823 189.857 203.953 189.353 203.997Z" fill="black" />
  <path d="M136.682 166.134L135.28 245.339" stroke="black" stroke-width="2" />
  <path d="M110.748 166.81L112.15 246.015" stroke="black" stroke-width="2" />
  <path d="M123.715 184.346C128.554 184.346 132.476 187.595 132.476 191.604C132.476 193.595 131.508 195.399 129.941 196.71L129.973 196.737L123.777 201.869L118.166 197.22C116.205 195.889 114.953 193.868 114.953 191.604C114.953 187.595 118.876 184.346 123.715 184.346ZM123.715 187.975C121.295 187.975 119.334 189.6 119.334 191.604C119.335 193.609 121.296 195.233 123.715 195.233C126.134 195.233 128.096 193.609 128.096 191.604C128.096 189.6 126.134 187.975 123.715 187.975Z" fill="black" />
  <path d="M66.7204 203.597C66.5428 203.725 66.2149 203.892 65.7368 204.097C65.2727 204.304 64.7056 204.475 64.0357 204.611C63.3657 204.747 62.6326 204.78 61.8365 204.71C60.6217 204.597 59.5461 204.304 58.6096 203.831C57.6879 203.345 56.9165 202.722 56.295 201.961C55.6877 201.202 55.2414 200.349 54.9564 199.401C54.6712 198.454 54.5654 197.456 54.6387 196.407C54.7209 195.232 54.971 194.168 55.3891 193.214C55.8211 192.26 56.3907 191.449 57.0979 190.782C57.819 190.116 58.6547 189.619 59.6051 189.293C60.5554 188.965 61.59 188.841 62.7088 188.919C63.7436 188.992 64.6498 189.195 65.4274 189.531C66.205 189.867 66.8342 190.212 67.3152 190.569L65.9186 193.359C65.5875 193.069 65.1381 192.764 64.5703 192.443C64.0175 192.11 63.3635 191.916 62.6083 191.864C62.021 191.822 61.4458 191.908 60.8828 192.122C60.3347 192.323 59.8353 192.632 59.3845 193.05C58.9476 193.469 58.5893 193.971 58.3095 194.556C58.0307 195.126 57.8669 195.761 57.818 196.461C57.7661 197.202 57.8236 197.887 57.9904 198.518C58.1711 199.148 58.4486 199.702 58.8228 200.178C59.1981 200.64 59.6571 201.009 60.1998 201.286C60.7565 201.564 61.3915 201.728 62.1047 201.778C62.9299 201.835 63.6454 201.752 64.2513 201.527C64.8572 201.302 65.3243 201.054 65.6525 200.782L66.7204 203.597ZM72.4798 196.074L72.5765 198.61L72.5401 198.228C72.8436 197.701 73.2396 197.265 73.7275 196.92C74.216 196.561 74.692 196.291 75.1539 196.113C75.6305 195.936 75.9873 195.855 76.2249 195.872L75.873 198.799C75.1931 198.667 74.598 198.738 74.0871 199.011C73.5761 199.284 73.1702 199.664 72.8695 200.149C72.5681 200.633 72.3992 201.141 72.3621 201.672L72.1111 205.26L69.1956 205.056L69.8367 195.889L72.4798 196.074ZM77.005 200.88C77.0709 199.943 77.3457 199.119 77.8314 198.408C78.3305 197.699 78.9936 197.162 79.82 196.798C80.6478 196.42 81.5786 196.268 82.6132 196.34C83.6625 196.413 84.5562 196.694 85.295 197.181C86.0345 197.654 86.5819 198.276 86.9352 199.045C87.3032 199.816 87.4539 200.669 87.3887 201.607C87.3228 202.543 87.0543 203.374 86.5819 204.101C86.1242 204.813 85.4962 205.359 84.6964 205.739C83.8973 206.119 82.9588 206.271 81.8821 206.196C80.8749 206.126 79.9868 205.867 79.2172 205.42C78.4616 204.973 77.8854 204.363 77.4901 203.591C77.0941 202.818 76.9328 201.915 77.005 200.88ZM79.9616 201.108C79.9279 201.583 79.9959 202.024 80.1642 202.429C80.3338 202.821 80.5784 203.14 80.898 203.387C81.2184 203.634 81.5878 203.772 82.0076 203.802C82.4688 203.834 82.8754 203.75 83.2265 203.55C83.5777 203.349 83.8574 203.067 84.0656 202.702C84.2751 202.323 84.3964 201.896 84.4293 201.42C84.4637 200.931 84.4027 200.491 84.2478 200.101C84.0922 199.711 83.8546 199.392 83.5342 199.144C83.2146 198.897 82.8242 198.757 82.3623 198.725C81.9431 198.696 81.5576 198.781 81.2064 198.982C80.8546 199.182 80.5679 199.464 80.3457 199.828C80.1235 200.192 79.9952 200.618 79.9616 201.108ZM97.213 206.193C96.7854 206.486 96.2569 206.709 95.6275 206.862C95.0127 207.016 94.4114 207.072 93.824 207.031C92.7754 206.958 91.8726 206.704 91.1156 206.273C90.374 205.827 89.8111 205.233 89.4277 204.489C89.059 203.733 88.9104 202.844 88.9819 201.823C89.0527 200.802 89.3443 199.951 89.856 199.27C90.3684 198.576 91.0083 198.065 91.7758 197.74C92.5574 197.414 93.3606 197.281 94.1856 197.339C95.0106 197.396 95.7158 197.558 96.3018 197.824C96.9011 198.091 97.405 198.421 97.8137 198.815L96.2548 200.603C96.0698 200.435 95.8083 200.263 95.4691 200.084C95.1452 199.894 94.7527 199.781 94.2908 199.749C93.8856 199.721 93.5078 199.8 93.1574 199.986C92.8069 200.172 92.5209 200.44 92.3001 200.79C92.0786 201.14 91.9518 201.553 91.9181 202.029C91.8873 202.476 91.963 202.896 92.1466 203.288C92.3296 203.68 92.5952 204.001 92.9436 204.251C93.306 204.486 93.7391 204.622 94.2431 204.657C94.5648 204.679 94.8614 204.658 95.1326 204.593C95.4193 204.515 95.666 204.398 95.8742 204.244L97.213 206.193Z" fill="black" />
</svg>