<svg width="81" height="76" viewBox="0 0 81 76" fill="none" xmlns="http://www.w3.org/2000/svg">
<path d="M3.37598 4.09082H16.7857L25.7702 45.7369C26.0768 47.1688 26.9164 48.4551 28.1422 49.3706C29.368 50.286 30.9018 50.7723 32.4751 50.7444H65.0607C66.634 50.7723 68.1678 50.286 69.3936 49.3706C70.6193 48.4551 71.459 47.1688 71.7656 45.7369L77.1295 19.642H20.1381M33.5479 66.2955C33.5479 68.0133 32.0469 69.4058 30.1954 69.4058C28.3439 69.4058 26.843 68.0133 26.843 66.2955C26.843 64.5778 28.3439 63.1853 30.1954 63.1853C32.0469 63.1853 33.5479 64.5778 33.5479 66.2955ZM70.4246 66.2955C70.4246 68.0133 68.9237 69.4058 67.0722 69.4058C65.2207 69.4058 63.7197 68.0133 63.7197 66.2955C63.7197 64.5778 65.2207 63.1853 67.0722 63.1853C68.9237 63.1853 70.4246 64.5778 70.4246 66.2955Z" stroke="#3E9838" stroke-width="4" stroke-linecap="round" stroke-linejoin="round"/>
</svg>
